<?xml version="1.0" encoding="utf-8"?>
<!-- Generator: Adobe Illustrator 16.0.4, SVG Export Plug-In . SVG Version: 6.00 Build 0)  -->
<!DOCTYPE svg PUBLIC "-//W3C//DTD SVG 1.1//EN" "http://www.w3.org/Graphics/SVG/1.1/DTD/svg11.dtd">
<svg version="1.1" id="Layer_1" xmlns="http://www.w3.org/2000/svg" xmlns:xlink="http://www.w3.org/1999/xlink" x="0px" y="0px"
	 width="664.936px" height="512px" viewBox="0 0 664.936 512" enable-background="new 0 0 664.936 512" xml:space="preserve">
<path d="M332.468,212.779c-47.662,0-86.441,38.779-86.441,86.441c0,47.663,38.779,86.441,86.441,86.441s86.441-38.778,86.441-86.441
	C418.909,251.558,380.13,212.779,332.468,212.779z"/>
<path d="M578.494,86.441h-99.74C478.754,38.699,440.055,0,392.312,0H272.624c-47.743,0-86.442,38.699-86.442,86.441h-99.74
	C38.699,86.441,0,125.141,0,172.883v252.675C0,473.301,38.699,512,86.442,512h492.052c47.742,0,86.441-38.699,86.441-86.441V172.883
	C664.936,125.141,626.236,86.441,578.494,86.441z M332.468,452.156c-84.334,0-152.936-68.608-152.936-152.936
	s68.602-152.935,152.936-152.935s152.936,68.608,152.936,152.935S416.802,452.156,332.468,452.156z"/>
</svg>
