<?xml version="1.0" encoding="utf-8"?>
<!-- Generator: Adobe Illustrator 16.0.0, SVG Export Plug-In . SVG Version: 6.00 Build 0)  -->
<!DOCTYPE svg PUBLIC "-//W3C//DTD SVG 1.1//EN" "http://www.w3.org/Graphics/SVG/1.1/DTD/svg11.dtd">
<svg version="1.1" id="Ebene_1" xmlns="http://www.w3.org/2000/svg" xmlns:xlink="http://www.w3.org/1999/xlink" x="0px" y="0px"
	 width="170.08px" height="170.08px" viewBox="0 0 170.08 170.08" enable-background="new 0 0 170.08 170.08" xml:space="preserve">
<g>
	<path fill="#EF7941" d="M143.416,22.443c-0.307,0-0.586,0.086-0.844,0.214c-0.637,0.316-1.088,0.958-1.088,1.716
		c0,1.064,0.867,1.93,1.932,1.93c0.787,0,1.461-0.476,1.76-1.151c0.107-0.239,0.172-0.5,0.172-0.778
		C145.348,23.309,144.48,22.443,143.416,22.443z"/>
	<path fill="#EF7941" d="M63.739,2.863c-0.465,0.121-0.921,0.265-1.384,0.393c-0.377,0.105-0.753,0.212-1.129,0.32
		c0.308,0.658,0.966,1.122,1.739,1.122c1.064,0,1.93-0.866,1.93-1.93c0-0.059-0.029-0.109-0.034-0.168
		C64.488,2.69,64.109,2.768,63.739,2.863z"/>
	<path fill="#EF7941" d="M72.877,1.047C72.14,1.153,71.41,1.275,70.68,1.4c-0.352,0.35-0.57,0.833-0.57,1.368
		c0,1.064,0.866,1.93,1.93,1.93c1.064,0,1.931-0.866,1.931-1.93C73.971,2.007,73.518,1.361,72.877,1.047z"/>
	<circle fill="#EF7941" cx="81.115" cy="2.767" r="1.931"/>
	<path fill="#EF7941" d="M0.801,79.614c-0.161,0-0.304,0.055-0.453,0.092c-0.026,0.42-0.061,0.836-0.081,1.258
		c-0.018,0.379-0.016,0.763-0.029,1.144c-0.014,0.415-0.024,0.832-0.031,1.249c0.189,0.062,0.383,0.12,0.594,0.12
		c1.062,0,1.928-0.866,1.928-1.93C2.729,80.481,1.864,79.614,0.801,79.614z"/>
	<circle fill="#EF7941" cx="9.874" cy="81.545" r="1.931"/>
	<circle fill="#EF7941" cx="18.949" cy="81.545" r="1.931"/>
	<path fill="#EF7941" d="M1.09,72.528c-0.054,0.367-0.091,0.739-0.141,1.108c-0.02,0.152-0.039,0.305-0.058,0.457
		c-0.025,0.195-0.051,0.391-0.075,0.587c-0.02,0.167-0.044,0.334-0.063,0.502C0.71,75.553,0.65,75.918,0.612,76.29
		c0.065,0.007,0.123,0.039,0.189,0.039c1.062,0,1.928-0.864,1.928-1.929C2.729,73.438,2.01,72.673,1.09,72.528z"/>
	<circle fill="#EF7941" cx="9.874" cy="74.399" r="1.929"/>
	<circle fill="#EF7941" cx="18.949" cy="74.399" r="1.929"/>
	<path fill="#EF7941" d="M1.713,68.922c0.596-0.329,1.017-0.941,1.017-1.669c0-0.438-0.172-0.822-0.419-1.146
		C2.098,67.041,1.895,67.977,1.713,68.922z"/>
	<circle fill="#EF7941" cx="9.874" cy="67.253" r="1.931"/>
	<circle fill="#EF7941" cx="18.949" cy="67.253" r="1.931"/>
	<circle fill="#EF7941" cx="9.874" cy="60.105" r="1.931"/>
	<circle fill="#EF7941" cx="18.949" cy="60.105" r="1.931"/>
	<circle fill="#EF7941" cx="9.874" cy="52.959" r="1.929"/>
	<circle fill="#EF7941" cx="18.949" cy="52.959" r="1.929"/>
	<path fill="#EF7941" d="M10.697,44.083c-0.182,0.329-0.363,0.66-0.541,0.993c-0.075,0.139-0.143,0.282-0.216,0.422
		c-0.094,0.177-0.183,0.358-0.275,0.537c-0.074,0.143-0.146,0.286-0.22,0.429c-0.171,0.333-0.346,0.664-0.512,1
		c0.283,0.162,0.592,0.281,0.94,0.281c1.064,0,1.932-0.866,1.932-1.932C11.806,45.046,11.347,44.394,10.697,44.083z"/>
	<circle fill="#EF7941" cx="18.949" cy="45.813" r="1.931"/>
	<circle fill="#EF7941" cx="18.949" cy="38.666" r="1.931"/>
	<path fill="#EF7941" d="M19.562,31.033c-0.106,0.128-0.205,0.263-0.31,0.392c-0.101,0.124-0.195,0.251-0.295,0.375
		c-0.115,0.144-0.226,0.29-0.341,0.434c-0.232,0.292-0.463,0.585-0.69,0.879c0.301,0.194,0.639,0.335,1.022,0.335
		c1.064,0,1.932-0.864,1.932-1.928c0-0.53-0.215-1.01-0.562-1.36C20.069,30.454,19.807,30.736,19.562,31.033z"/>
	<circle fill="#EF7941" cx="26.665" cy="81.545" r="1.931"/>
	<path fill="#EF7941" d="M35.741,79.614c-1.065,0-1.932,0.868-1.932,1.932c0,1.064,0.866,1.93,1.932,1.93
		c1.063,0,1.929-0.866,1.929-1.93C37.669,80.481,36.804,79.614,35.741,79.614z"/>
	<circle fill="#EF7941" cx="44.814" cy="81.545" r="1.931"/>
	<circle fill="#EF7941" cx="53.89" cy="81.545" r="1.931"/>
	<circle fill="#EF7941" cx="62.965" cy="81.545" r="1.931"/>
	<circle fill="#EF7941" cx="72.04" cy="81.545" r="1.931"/>
	<circle fill="#EF7941" cx="81.115" cy="81.545" r="1.931"/>
	<circle fill="#EF7941" cx="26.665" cy="74.399" r="1.929"/>
	<path fill="#EF7941" d="M35.741,72.469c-1.065,0-1.932,0.866-1.932,1.93c0,1.064,0.866,1.929,1.932,1.929
		c1.063,0,1.929-0.864,1.929-1.929C37.669,73.335,36.804,72.469,35.741,72.469z"/>
	<circle fill="#EF7941" cx="44.814" cy="74.399" r="1.929"/>
	<circle fill="#EF7941" cx="53.89" cy="74.399" r="1.929"/>
	<circle fill="#EF7941" cx="62.965" cy="74.399" r="1.929"/>
	<circle fill="#EF7941" cx="72.04" cy="74.399" r="1.929"/>
	<circle fill="#EF7941" cx="81.115" cy="74.399" r="1.929"/>
	<circle fill="#EF7941" cx="26.665" cy="67.253" r="1.931"/>
	<path fill="#EF7941" d="M35.741,65.322c-1.065,0-1.932,0.868-1.932,1.932c0,1.064,0.866,1.93,1.932,1.93
		c1.063,0,1.929-0.866,1.929-1.93C37.669,66.189,36.804,65.322,35.741,65.322z"/>
	<circle fill="#EF7941" cx="44.814" cy="67.253" r="1.931"/>
	<circle fill="#EF7941" cx="53.89" cy="67.253" r="1.931"/>
	<circle fill="#EF7941" cx="62.965" cy="67.253" r="1.931"/>
	<circle fill="#EF7941" cx="72.04" cy="67.253" r="1.931"/>
	<circle fill="#EF7941" cx="81.115" cy="67.253" r="1.931"/>
	<circle fill="#EF7941" cx="26.665" cy="60.105" r="1.931"/>
	<path fill="#EF7941" d="M35.741,58.174c-1.065,0-1.932,0.868-1.932,1.932s0.866,1.93,1.932,1.93c1.063,0,1.929-0.866,1.929-1.93
		S36.804,58.174,35.741,58.174z"/>
	<circle fill="#EF7941" cx="44.814" cy="60.105" r="1.931"/>
	<circle fill="#EF7941" cx="53.89" cy="60.105" r="1.931"/>
	<circle fill="#EF7941" cx="62.965" cy="60.105" r="1.931"/>
	<circle fill="#EF7941" cx="72.04" cy="60.105" r="1.931"/>
	<circle fill="#EF7941" cx="81.115" cy="60.105" r="1.931"/>
	<circle fill="#EF7941" cx="26.665" cy="52.959" r="1.929"/>
	<path fill="#EF7941" d="M35.741,51.03c-1.065,0-1.932,0.866-1.932,1.93c0,1.064,0.866,1.929,1.932,1.929
		c1.063,0,1.929-0.865,1.929-1.929C37.669,51.896,36.804,51.03,35.741,51.03z"/>
	<circle fill="#EF7941" cx="44.814" cy="52.959" r="1.929"/>
	<circle fill="#EF7941" cx="53.89" cy="52.959" r="1.929"/>
	<circle fill="#EF7941" cx="62.965" cy="52.959" r="1.929"/>
	<circle fill="#EF7941" cx="72.04" cy="52.959" r="1.929"/>
	<circle fill="#EF7941" cx="81.115" cy="52.959" r="1.929"/>
	<circle fill="#EF7941" cx="26.665" cy="45.813" r="1.931"/>
	<path fill="#EF7941" d="M35.741,43.882c-1.065,0-1.932,0.866-1.932,1.93c0,1.065,0.866,1.932,1.932,1.932
		c1.063,0,1.929-0.866,1.929-1.932C37.669,44.748,36.804,43.882,35.741,43.882z"/>
	<circle fill="#EF7941" cx="44.814" cy="45.813" r="1.931"/>
	<circle fill="#EF7941" cx="53.89" cy="45.813" r="1.931"/>
	<circle fill="#EF7941" cx="62.965" cy="45.813" r="1.931"/>
	<circle fill="#EF7941" cx="72.04" cy="45.813" r="1.931"/>
	<circle fill="#EF7941" cx="81.115" cy="45.813" r="1.931"/>
	<circle fill="#EF7941" cx="26.665" cy="38.666" r="1.931"/>
	<path fill="#EF7941" d="M35.741,36.735c-1.065,0-1.932,0.867-1.932,1.932c0,1.064,0.866,1.93,1.932,1.93
		c1.063,0,1.929-0.866,1.929-1.93C37.669,37.602,36.804,36.735,35.741,36.735z"/>
	<circle fill="#EF7941" cx="44.814" cy="38.666" r="1.931"/>
	<circle fill="#EF7941" cx="53.89" cy="38.666" r="1.931"/>
	<circle fill="#EF7941" cx="62.965" cy="38.666" r="1.931"/>
	<circle fill="#EF7941" cx="72.04" cy="38.666" r="1.931"/>
	<circle fill="#EF7941" cx="81.115" cy="38.666" r="1.931"/>
	<circle fill="#EF7941" cx="26.665" cy="31.518" r="1.931"/>
	<path fill="#EF7941" d="M35.741,29.587c-1.065,0-1.932,0.867-1.932,1.933c0,1.064,0.866,1.928,1.932,1.928
		c1.063,0,1.929-0.864,1.929-1.928C37.669,30.455,36.804,29.587,35.741,29.587z"/>
	<circle fill="#EF7941" cx="44.814" cy="31.518" r="1.931"/>
	<circle fill="#EF7941" cx="53.89" cy="31.518" r="1.931"/>
	<circle fill="#EF7941" cx="62.965" cy="31.518" r="1.931"/>
	<circle fill="#EF7941" cx="72.04" cy="31.518" r="1.931"/>
	<circle fill="#EF7941" cx="81.115" cy="31.518" r="1.931"/>
	<path fill="#EF7941" d="M27.508,22.657c-0.339,0.313-0.667,0.636-1.001,0.955c-0.198,0.189-0.399,0.377-0.597,0.568
		c-0.333,0.325-0.676,0.64-1.005,0.97c0.3,0.676,0.973,1.153,1.76,1.153c1.064,0,1.932-0.866,1.932-1.93
		C28.596,23.615,28.146,22.973,27.508,22.657z"/>
	<path fill="#EF7941" d="M35.741,22.443c-1.065,0-1.932,0.866-1.932,1.93c0,1.064,0.866,1.93,1.932,1.93
		c1.063,0,1.929-0.866,1.929-1.93C37.669,23.309,36.804,22.443,35.741,22.443z"/>
	<circle fill="#EF7941" cx="44.814" cy="24.373" r="1.93"/>
	<circle fill="#EF7941" cx="53.89" cy="24.373" r="1.93"/>
	<circle fill="#EF7941" cx="62.965" cy="24.373" r="1.93"/>
	<circle fill="#EF7941" cx="72.04" cy="24.373" r="1.93"/>
	<circle fill="#EF7941" cx="81.115" cy="24.373" r="1.93"/>
	<path fill="#EF7941" d="M36.482,15.445c-0.893,0.624-1.779,1.256-2.646,1.913c0.072,1,0.887,1.798,1.905,1.798
		c1.063,0,1.929-0.866,1.929-1.932C37.669,16.425,37.178,15.737,36.482,15.445z"/>
	<circle fill="#EF7941" cx="44.814" cy="17.226" r="1.931"/>
	<circle fill="#EF7941" cx="53.89" cy="17.226" r="1.931"/>
	<circle fill="#EF7941" cx="62.965" cy="17.226" r="1.931"/>
	<circle fill="#EF7941" cx="72.04" cy="17.226" r="1.931"/>
	<circle fill="#EF7941" cx="81.115" cy="17.226" r="1.931"/>
	<path fill="#EF7941" d="M45.573,9.902c-0.146,0.077-0.295,0.148-0.44,0.226c-0.134,0.072-0.273,0.136-0.406,0.208
		c-0.166,0.09-0.329,0.185-0.494,0.275c-0.326,0.18-0.645,0.374-0.969,0.557c0.35,0.496,0.898,0.841,1.55,0.841
		c1.064,0,1.932-0.866,1.932-1.93c0-0.249-0.056-0.484-0.143-0.704C46.259,9.55,45.915,9.723,45.573,9.902z"/>
	<circle fill="#EF7941" cx="53.89" cy="10.079" r="1.931"/>
	<circle fill="#EF7941" cx="62.965" cy="10.079" r="1.931"/>
	<circle fill="#EF7941" cx="72.04" cy="10.079" r="1.931"/>
	<circle fill="#EF7941" cx="81.115" cy="10.079" r="1.931"/>
	<path fill="#EF7941" d="M88.967,0.836c-1.064,0-1.932,0.867-1.932,1.932c0,1.064,0.867,1.93,1.932,1.93
		c1.062,0,1.93-0.866,1.93-1.93C90.896,1.703,90.029,0.836,88.967,0.836z"/>
	<path fill="#EF7941" d="M97.205,1.047c-0.643,0.314-1.094,0.96-1.094,1.721c0,1.064,0.865,1.93,1.932,1.93
		c1.062,0,1.93-0.866,1.93-1.93c0-0.534-0.219-1.018-0.57-1.368C98.672,1.275,97.941,1.153,97.205,1.047z"/>
	<path fill="#EF7941" d="M107.117,4.698c0.771,0,1.43-0.463,1.738-1.121c-0.375-0.109-0.752-0.216-1.129-0.321
		c-0.463-0.128-0.92-0.272-1.385-0.393c-0.373-0.096-0.75-0.172-1.123-0.263c-0.006,0.058-0.033,0.108-0.033,0.168
		C105.186,3.832,106.051,4.698,107.117,4.698z"/>
	<path fill="#EF7941" d="M88.967,79.614c-1.064,0-1.932,0.868-1.932,1.932c0,1.064,0.867,1.93,1.932,1.93
		c1.062,0,1.93-0.866,1.93-1.93C90.896,80.481,90.029,79.614,88.967,79.614z"/>
	<path fill="#EF7941" d="M98.043,79.614c-1.066,0-1.932,0.868-1.932,1.932c0,1.064,0.865,1.93,1.932,1.93
		c1.062,0,1.93-0.866,1.93-1.93C99.973,80.481,99.105,79.614,98.043,79.614z"/>
	<circle fill="#EF7941" cx="107.117" cy="81.545" r="1.931"/>
	<circle fill="#EF7941" cx="116.189" cy="81.545" r="1.931"/>
	<circle fill="#EF7941" cx="125.266" cy="81.545" r="1.931"/>
	<circle fill="#EF7941" cx="134.342" cy="81.545" r="1.931"/>
	<circle fill="#EF7941" cx="143.416" cy="81.545" r="1.931"/>
	<path fill="#EF7941" d="M88.967,72.469c-1.064,0-1.932,0.866-1.932,1.93c0,1.064,0.867,1.929,1.932,1.929
		c1.062,0,1.93-0.864,1.93-1.929C90.896,73.335,90.029,72.469,88.967,72.469z"/>
	<path fill="#EF7941" d="M98.043,72.469c-1.066,0-1.932,0.866-1.932,1.93c0,1.064,0.865,1.929,1.932,1.929
		c1.062,0,1.93-0.864,1.93-1.929C99.973,73.335,99.105,72.469,98.043,72.469z"/>
	<circle fill="#EF7941" cx="107.117" cy="74.399" r="1.929"/>
	<circle fill="#EF7941" cx="116.189" cy="74.399" r="1.929"/>
	<circle fill="#EF7941" cx="125.266" cy="74.399" r="1.929"/>
	<circle fill="#EF7941" cx="134.342" cy="74.399" r="1.929"/>
	<circle fill="#EF7941" cx="143.416" cy="74.399" r="1.929"/>
	<path fill="#EF7941" d="M88.967,65.322c-1.064,0-1.932,0.868-1.932,1.932c0,1.064,0.867,1.93,1.932,1.93
		c1.062,0,1.93-0.866,1.93-1.93C90.896,66.189,90.029,65.322,88.967,65.322z"/>
	<path fill="#EF7941" d="M98.043,65.322c-1.066,0-1.932,0.868-1.932,1.932c0,1.064,0.865,1.93,1.932,1.93
		c1.062,0,1.93-0.866,1.93-1.93C99.973,66.189,99.105,65.322,98.043,65.322z"/>
	<circle fill="#EF7941" cx="107.117" cy="67.253" r="1.931"/>
	<circle fill="#EF7941" cx="116.189" cy="67.253" r="1.931"/>
	<circle fill="#EF7941" cx="125.266" cy="67.253" r="1.931"/>
	<circle fill="#EF7941" cx="134.342" cy="67.253" r="1.931"/>
	<circle fill="#EF7941" cx="143.416" cy="67.253" r="1.931"/>
	<path fill="#EF7941" d="M88.967,58.174c-1.064,0-1.932,0.868-1.932,1.932s0.867,1.93,1.932,1.93c1.062,0,1.93-0.866,1.93-1.93
		S90.029,58.174,88.967,58.174z"/>
	<path fill="#EF7941" d="M98.043,58.174c-1.066,0-1.932,0.868-1.932,1.932s0.865,1.93,1.932,1.93c1.062,0,1.93-0.866,1.93-1.93
		S99.105,58.174,98.043,58.174z"/>
	<circle fill="#EF7941" cx="107.117" cy="60.105" r="1.931"/>
	<circle fill="#EF7941" cx="116.189" cy="60.105" r="1.931"/>
	<circle fill="#EF7941" cx="125.266" cy="60.105" r="1.931"/>
	<circle fill="#EF7941" cx="134.342" cy="60.105" r="1.931"/>
	<circle fill="#EF7941" cx="143.416" cy="60.105" r="1.931"/>
	<path fill="#EF7941" d="M88.967,51.03c-1.064,0-1.932,0.866-1.932,1.93c0,1.064,0.867,1.929,1.932,1.929
		c1.062,0,1.93-0.865,1.93-1.929C90.896,51.896,90.029,51.03,88.967,51.03z"/>
	<path fill="#EF7941" d="M98.043,51.03c-1.066,0-1.932,0.866-1.932,1.93c0,1.064,0.865,1.929,1.932,1.929
		c1.062,0,1.93-0.865,1.93-1.929C99.973,51.896,99.105,51.03,98.043,51.03z"/>
	<circle fill="#EF7941" cx="107.117" cy="52.959" r="1.929"/>
	<circle fill="#EF7941" cx="116.189" cy="52.959" r="1.929"/>
	<circle fill="#EF7941" cx="125.266" cy="52.959" r="1.929"/>
	<circle fill="#EF7941" cx="134.342" cy="52.959" r="1.929"/>
	<circle fill="#EF7941" cx="143.416" cy="52.959" r="1.929"/>
	<path fill="#EF7941" d="M88.967,43.882c-1.064,0-1.932,0.866-1.932,1.93c0,1.065,0.867,1.932,1.932,1.932
		c1.062,0,1.93-0.866,1.93-1.932C90.896,44.748,90.029,43.882,88.967,43.882z"/>
	<path fill="#EF7941" d="M98.043,43.882c-1.066,0-1.932,0.866-1.932,1.93c0,1.065,0.865,1.932,1.932,1.932
		c1.062,0,1.93-0.866,1.93-1.932C99.973,44.748,99.105,43.882,98.043,43.882z"/>
	<circle fill="#EF7941" cx="107.117" cy="45.813" r="1.931"/>
	<circle fill="#EF7941" cx="116.189" cy="45.813" r="1.931"/>
	<circle fill="#EF7941" cx="125.266" cy="45.813" r="1.931"/>
	<circle fill="#EF7941" cx="134.342" cy="45.813" r="1.931"/>
	<circle fill="#EF7941" cx="143.416" cy="45.813" r="1.931"/>
	<path fill="#EF7941" d="M88.967,36.735c-1.064,0-1.932,0.867-1.932,1.932c0,1.064,0.867,1.93,1.932,1.93
		c1.062,0,1.93-0.866,1.93-1.93C90.896,37.602,90.029,36.735,88.967,36.735z"/>
	<path fill="#EF7941" d="M98.043,36.735c-1.066,0-1.932,0.867-1.932,1.932c0,1.064,0.865,1.93,1.932,1.93
		c1.062,0,1.93-0.866,1.93-1.93C99.973,37.602,99.105,36.735,98.043,36.735z"/>
	<circle fill="#EF7941" cx="107.117" cy="38.666" r="1.931"/>
	<circle fill="#EF7941" cx="116.189" cy="38.666" r="1.931"/>
	<circle fill="#EF7941" cx="125.266" cy="38.666" r="1.931"/>
	<circle fill="#EF7941" cx="134.342" cy="38.666" r="1.931"/>
	<circle fill="#EF7941" cx="143.416" cy="38.666" r="1.931"/>
	<path fill="#EF7941" d="M88.967,29.587c-1.064,0-1.932,0.867-1.932,1.933c0,1.064,0.867,1.928,1.932,1.928
		c1.062,0,1.93-0.864,1.93-1.928C90.896,30.455,90.029,29.587,88.967,29.587z"/>
	<path fill="#EF7941" d="M98.043,29.587c-1.066,0-1.932,0.867-1.932,1.933c0,1.064,0.865,1.928,1.932,1.928
		c1.062,0,1.93-0.864,1.93-1.928C99.973,30.455,99.105,29.587,98.043,29.587z"/>
	<circle fill="#EF7941" cx="107.117" cy="31.518" r="1.931"/>
	<circle fill="#EF7941" cx="116.189" cy="31.518" r="1.931"/>
	<circle fill="#EF7941" cx="125.266" cy="31.518" r="1.931"/>
	<circle fill="#EF7941" cx="134.342" cy="31.518" r="1.931"/>
	<circle fill="#EF7941" cx="143.416" cy="31.518" r="1.931"/>
	<path fill="#EF7941" d="M88.967,22.443c-1.064,0-1.932,0.866-1.932,1.93c0,1.064,0.867,1.93,1.932,1.93
		c1.062,0,1.93-0.866,1.93-1.93C90.896,23.309,90.029,22.443,88.967,22.443z"/>
	<path fill="#EF7941" d="M98.043,22.443c-1.066,0-1.932,0.866-1.932,1.93c0,1.064,0.865,1.93,1.932,1.93
		c1.062,0,1.93-0.866,1.93-1.93C99.973,23.309,99.105,22.443,98.043,22.443z"/>
	<circle fill="#EF7941" cx="107.117" cy="24.373" r="1.93"/>
	<circle fill="#EF7941" cx="116.189" cy="24.373" r="1.93"/>
	<circle fill="#EF7941" cx="125.266" cy="24.373" r="1.93"/>
	<circle fill="#EF7941" cx="134.342" cy="24.373" r="1.93"/>
	<path fill="#EF7941" d="M88.967,15.295c-1.064,0-1.932,0.866-1.932,1.93c0,1.066,0.867,1.932,1.932,1.932
		c1.062,0,1.93-0.866,1.93-1.932C90.896,16.161,90.029,15.295,88.967,15.295z"/>
	<path fill="#EF7941" d="M98.043,15.295c-1.066,0-1.932,0.866-1.932,1.93c0,1.066,0.865,1.932,1.932,1.932
		c1.062,0,1.93-0.866,1.93-1.932C99.973,16.161,99.105,15.295,98.043,15.295z"/>
	<circle fill="#EF7941" cx="107.117" cy="17.226" r="1.931"/>
	<circle fill="#EF7941" cx="116.189" cy="17.226" r="1.931"/>
	<circle fill="#EF7941" cx="125.266" cy="17.226" r="1.931"/>
	<path fill="#EF7941" d="M134.342,19.157c1.02,0,1.832-0.797,1.904-1.797c-0.867-0.657-1.754-1.29-2.646-1.915
		c-0.697,0.292-1.188,0.979-1.188,1.78C132.412,18.291,133.277,19.157,134.342,19.157z"/>
	<path fill="#EF7941" d="M88.967,8.148c-1.064,0-1.932,0.867-1.932,1.931c0,1.064,0.867,1.93,1.932,1.93
		c1.062,0,1.93-0.866,1.93-1.93C90.896,9.015,90.029,8.148,88.967,8.148z"/>
	<path fill="#EF7941" d="M98.043,8.148c-1.066,0-1.932,0.867-1.932,1.931c0,1.064,0.865,1.93,1.932,1.93
		c1.062,0,1.93-0.866,1.93-1.93C99.973,9.015,99.105,8.148,98.043,8.148z"/>
	<circle fill="#EF7941" cx="107.117" cy="10.079" r="1.931"/>
	<circle fill="#EF7941" cx="116.189" cy="10.079" r="1.931"/>
	<path fill="#EF7941" d="M125.266,12.009c0.652,0,1.203-0.345,1.551-0.841c-0.324-0.183-0.643-0.377-0.969-0.557
		c-0.164-0.091-0.326-0.186-0.494-0.275c-0.133-0.072-0.27-0.135-0.402-0.207c-0.146-0.078-0.297-0.149-0.443-0.226
		c-0.34-0.18-0.686-0.353-1.029-0.528c-0.086,0.219-0.143,0.455-0.143,0.704C123.336,11.144,124.201,12.009,125.266,12.009z"/>
	<path fill="#EF7941" d="M151.129,79.614c-1.062,0-1.926,0.868-1.926,1.932c0,1.064,0.863,1.93,1.926,1.93
		c1.068,0,1.936-0.866,1.936-1.93C153.064,80.481,152.197,79.614,151.129,79.614z"/>
	<circle fill="#EF7941" cx="160.205" cy="81.545" r="1.931"/>
	<path fill="#EF7941" d="M169.281,83.476c0.211,0,0.402-0.058,0.592-0.119c-0.008-0.417-0.018-0.833-0.031-1.248
		c-0.014-0.381-0.012-0.766-0.029-1.146c-0.02-0.421-0.055-0.838-0.08-1.257c-0.148-0.036-0.291-0.091-0.451-0.091
		c-1.064,0-1.93,0.868-1.93,1.932C167.352,82.61,168.217,83.476,169.281,83.476z"/>
	<path fill="#EF7941" d="M151.129,72.469c-1.062,0-1.926,0.866-1.926,1.93c0,1.064,0.863,1.929,1.926,1.929
		c1.068,0,1.936-0.864,1.936-1.929C153.064,73.335,152.197,72.469,151.129,72.469z"/>
	<circle fill="#EF7941" cx="160.205" cy="74.399" r="1.929"/>
	<path fill="#EF7941" d="M169.281,76.328c0.066,0,0.121-0.031,0.188-0.038c-0.039-0.373-0.098-0.737-0.141-1.108
		c-0.021-0.169-0.045-0.336-0.066-0.505c-0.023-0.195-0.049-0.389-0.072-0.584c-0.02-0.152-0.037-0.306-0.059-0.457
		c-0.051-0.369-0.088-0.741-0.141-1.108c-0.92,0.146-1.639,0.91-1.639,1.871C167.352,75.464,168.217,76.328,169.281,76.328z"/>
	<path fill="#EF7941" d="M151.129,65.322c-1.062,0-1.926,0.868-1.926,1.932c0,1.064,0.863,1.93,1.926,1.93
		c1.068,0,1.936-0.866,1.936-1.93C153.064,66.189,152.197,65.322,151.129,65.322z"/>
	<circle fill="#EF7941" cx="160.205" cy="67.253" r="1.931"/>
	<path fill="#EF7941" d="M168.367,68.921c-0.182-0.944-0.385-1.88-0.598-2.812c-0.246,0.324-0.418,0.708-0.418,1.145
		C167.352,67.98,167.771,68.591,168.367,68.921z"/>
	<path fill="#EF7941" d="M151.129,58.174c-1.062,0-1.926,0.868-1.926,1.932s0.863,1.93,1.926,1.93c1.068,0,1.936-0.866,1.936-1.93
		S152.197,58.174,151.129,58.174z"/>
	<circle fill="#EF7941" cx="160.205" cy="60.105" r="1.931"/>
	<path fill="#EF7941" d="M151.129,51.03c-1.062,0-1.926,0.866-1.926,1.93c0,1.064,0.863,1.929,1.926,1.929
		c1.068,0,1.936-0.865,1.936-1.929C153.064,51.896,152.197,51.03,151.129,51.03z"/>
	<circle fill="#EF7941" cx="160.205" cy="52.959" r="1.929"/>
	<path fill="#EF7941" d="M151.129,43.882c-1.062,0-1.926,0.866-1.926,1.93c0,1.065,0.863,1.932,1.926,1.932
		c1.068,0,1.936-0.866,1.936-1.932C153.064,44.748,152.197,43.882,151.129,43.882z"/>
	<path fill="#EF7941" d="M160.205,47.744c0.348,0,0.66-0.118,0.941-0.28c-0.166-0.336-0.342-0.666-0.512-0.999
		c-0.074-0.145-0.146-0.289-0.221-0.432c-0.094-0.178-0.182-0.358-0.275-0.536c-0.072-0.14-0.141-0.283-0.215-0.422
		c-0.178-0.333-0.359-0.663-0.541-0.993c-0.65,0.311-1.107,0.963-1.107,1.729C158.275,46.878,159.141,47.744,160.205,47.744z"/>
	<path fill="#EF7941" d="M151.129,36.735c-1.062,0-1.926,0.867-1.926,1.932c0,1.064,0.863,1.93,1.926,1.93
		c1.068,0,1.936-0.866,1.936-1.93C153.064,37.602,152.197,36.735,151.129,36.735z"/>
	<path fill="#EF7941" d="M151.129,33.449c0.385,0,0.725-0.141,1.025-0.334c-0.229-0.295-0.459-0.587-0.689-0.879
		c-0.115-0.145-0.229-0.293-0.344-0.437c-0.1-0.123-0.193-0.25-0.291-0.372c-0.105-0.129-0.205-0.264-0.312-0.393
		c-0.244-0.297-0.506-0.579-0.756-0.873c-0.344,0.349-0.559,0.829-0.559,1.359C149.203,32.584,150.066,33.449,151.129,33.449z"/>
	<path fill="#EF7941" d="M18.949,136.628c-0.385,0-0.723,0.143-1.024,0.338c0.228,0.295,0.458,0.588,0.69,0.878
		c0.102,0.129,0.201,0.26,0.304,0.388c0.111,0.138,0.216,0.279,0.328,0.417c0.107,0.132,0.207,0.269,0.314,0.398
		c0.246,0.298,0.507,0.58,0.756,0.873c0.346-0.35,0.562-0.83,0.562-1.36C20.88,137.494,20.013,136.628,18.949,136.628z"/>
	<circle fill="#EF7941" cx="18.949" cy="131.415" r="1.931"/>
	<path fill="#EF7941" d="M9.874,122.336c-0.349,0-0.659,0.119-0.94,0.28c0.166,0.336,0.341,0.666,0.511,1
		c0.069,0.134,0.137,0.269,0.206,0.401c0.089,0.173,0.176,0.348,0.266,0.52c0.082,0.155,0.157,0.313,0.239,0.468
		c0.178,0.331,0.358,0.663,0.54,0.993c0.65-0.312,1.109-0.964,1.109-1.731C11.806,123.202,10.938,122.336,9.874,122.336z"/>
	<circle fill="#EF7941" cx="18.949" cy="124.267" r="1.931"/>
	<circle fill="#EF7941" cx="9.874" cy="117.12" r="1.931"/>
	<circle fill="#EF7941" cx="18.949" cy="117.12" r="1.931"/>
	<circle fill="#EF7941" cx="9.874" cy="109.974" r="1.933"/>
	<circle fill="#EF7941" cx="18.949" cy="109.974" r="1.933"/>
	<path fill="#EF7941" d="M1.713,101.157c0.181,0.945,0.385,1.883,0.598,2.816c0.247-0.324,0.419-0.709,0.419-1.146
		C2.729,102.099,2.309,101.487,1.713,101.157z"/>
	<circle fill="#EF7941" cx="9.874" cy="102.827" r="1.931"/>
	<circle fill="#EF7941" cx="18.949" cy="102.827" r="1.931"/>
	<path fill="#EF7941" d="M0.801,93.749c-0.067,0-0.125,0.031-0.189,0.039c0.038,0.371,0.098,0.736,0.141,1.108
		c0.018,0.147,0.038,0.296,0.057,0.443c0.024,0.2,0.05,0.398,0.076,0.599c0.021,0.169,0.042,0.337,0.064,0.506
		c0.049,0.368,0.086,0.74,0.141,1.107c0.92-0.146,1.64-0.909,1.64-1.871C2.729,94.615,1.864,93.749,0.801,93.749z"/>
	<circle fill="#EF7941" cx="9.874" cy="95.68" r="1.931"/>
	<circle fill="#EF7941" cx="18.949" cy="95.68" r="1.931"/>
	<path fill="#EF7941" d="M0.801,86.602c-0.21,0-0.404,0.058-0.594,0.12c0.007,0.417,0.017,0.833,0.031,1.249
		c0.013,0.381,0.011,0.766,0.029,1.145c0.02,0.42,0.055,0.837,0.081,1.256c0.149,0.037,0.292,0.092,0.453,0.092
		c1.062,0,1.928-0.865,1.928-1.93C2.729,87.468,1.864,86.602,0.801,86.602z"/>
	<circle fill="#EF7941" cx="9.874" cy="88.532" r="1.931"/>
	<circle fill="#EF7941" cx="18.949" cy="88.532" r="1.931"/>
	<path fill="#EF7941" d="M44.814,158.07c-0.652,0-1.201,0.347-1.55,0.843c0.324,0.184,0.642,0.377,0.969,0.557
		c0.148,0.081,0.292,0.167,0.439,0.247c0.154,0.084,0.313,0.157,0.468,0.239c0.143,0.077,0.29,0.146,0.433,0.223
		c0.341,0.179,0.686,0.353,1.03,0.526c0.087-0.219,0.143-0.455,0.143-0.706C46.746,158.937,45.878,158.07,44.814,158.07z"/>
	<path fill="#EF7941" d="M53.89,158.07c-1.064,0-1.93,0.866-1.93,1.929c0,1.066,0.866,1.934,1.93,1.934
		c1.064,0,1.93-0.867,1.93-1.934C55.82,158.937,54.954,158.07,53.89,158.07z"/>
	<path fill="#EF7941" d="M62.965,158.07c-1.064,0-1.93,0.866-1.93,1.929c0,1.066,0.866,1.934,1.93,1.934
		c1.064,0,1.93-0.867,1.93-1.934C64.895,158.937,64.029,158.07,62.965,158.07z"/>
	<path fill="#EF7941" d="M72.04,158.07c-1.064,0-1.93,0.866-1.93,1.929c0,1.066,0.866,1.934,1.93,1.934
		c1.064,0,1.931-0.867,1.931-1.934C73.971,158.937,73.104,158.07,72.04,158.07z"/>
	<path fill="#EF7941" d="M81.115,158.07c-1.064,0-1.93,0.866-1.93,1.929c0,1.066,0.866,1.934,1.93,1.934
		c1.063,0,1.929-0.867,1.929-1.934C83.044,158.937,82.178,158.07,81.115,158.07z"/>
	<path fill="#EF7941" d="M35.741,150.923c-1.019,0-1.834,0.8-1.905,1.799c0.867,0.657,1.752,1.289,2.645,1.914
		c0.696-0.292,1.188-0.98,1.188-1.782C37.669,151.789,36.804,150.923,35.741,150.923z"/>
	<circle fill="#EF7941" cx="44.814" cy="152.854" r="1.931"/>
	<circle fill="#EF7941" cx="53.89" cy="152.854" r="1.931"/>
	<circle fill="#EF7941" cx="62.965" cy="152.854" r="1.931"/>
	<circle fill="#EF7941" cx="72.04" cy="152.854" r="1.931"/>
	<circle fill="#EF7941" cx="81.115" cy="152.854" r="1.931"/>
	<path fill="#EF7941" d="M26.665,143.775c-0.787,0-1.461,0.477-1.761,1.155c0.33,0.33,0.673,0.645,1.007,0.971
		c0.197,0.19,0.396,0.379,0.595,0.566c0.334,0.318,0.663,0.643,1.001,0.956c0.639-0.314,1.089-0.959,1.089-1.718
		C28.596,144.642,27.729,143.775,26.665,143.775z"/>
	<path fill="#EF7941" d="M35.741,143.775c-1.065,0-1.932,0.866-1.932,1.931c0,1.065,0.866,1.932,1.932,1.932
		c1.063,0,1.929-0.866,1.929-1.932C37.669,144.642,36.804,143.775,35.741,143.775z"/>
	<circle fill="#EF7941" cx="44.814" cy="145.707" r="1.931"/>
	<circle fill="#EF7941" cx="53.89" cy="145.707" r="1.931"/>
	<circle fill="#EF7941" cx="62.965" cy="145.707" r="1.931"/>
	<circle fill="#EF7941" cx="72.04" cy="145.707" r="1.931"/>
	<circle fill="#EF7941" cx="81.115" cy="145.707" r="1.931"/>
	<circle fill="#EF7941" cx="26.665" cy="138.561" r="1.933"/>
	<path fill="#EF7941" d="M35.741,136.628c-1.065,0-1.932,0.866-1.932,1.932c0,1.066,0.866,1.934,1.932,1.934
		c1.063,0,1.929-0.867,1.929-1.934C37.669,137.494,36.804,136.628,35.741,136.628z"/>
	<circle fill="#EF7941" cx="44.814" cy="138.561" r="1.933"/>
	<circle fill="#EF7941" cx="53.89" cy="138.561" r="1.933"/>
	<circle fill="#EF7941" cx="62.965" cy="138.561" r="1.933"/>
	<circle fill="#EF7941" cx="72.04" cy="138.561" r="1.933"/>
	<circle fill="#EF7941" cx="81.115" cy="138.561" r="1.933"/>
	<circle fill="#EF7941" cx="26.665" cy="131.415" r="1.931"/>
	<path fill="#EF7941" d="M35.741,129.483c-1.065,0-1.932,0.866-1.932,1.931c0,1.065,0.866,1.932,1.932,1.932
		c1.063,0,1.929-0.866,1.929-1.932C37.669,130.35,36.804,129.483,35.741,129.483z"/>
	<circle fill="#EF7941" cx="44.814" cy="131.415" r="1.931"/>
	<circle fill="#EF7941" cx="53.89" cy="131.415" r="1.931"/>
	<circle fill="#EF7941" cx="62.965" cy="131.415" r="1.931"/>
	<circle fill="#EF7941" cx="72.04" cy="131.415" r="1.931"/>
	<circle fill="#EF7941" cx="81.115" cy="131.415" r="1.931"/>
	<circle fill="#EF7941" cx="26.665" cy="124.267" r="1.931"/>
	<path fill="#EF7941" d="M35.741,122.336c-1.065,0-1.932,0.866-1.932,1.931c0,1.065,0.866,1.932,1.932,1.932
		c1.063,0,1.929-0.866,1.929-1.932C37.669,123.202,36.804,122.336,35.741,122.336z"/>
	<circle fill="#EF7941" cx="44.814" cy="124.267" r="1.931"/>
	<circle fill="#EF7941" cx="53.89" cy="124.267" r="1.931"/>
	<circle fill="#EF7941" cx="62.965" cy="124.267" r="1.931"/>
	<circle fill="#EF7941" cx="72.04" cy="124.267" r="1.931"/>
	<circle fill="#EF7941" cx="81.115" cy="124.267" r="1.931"/>
	<circle fill="#EF7941" cx="26.665" cy="117.12" r="1.931"/>
	<path fill="#EF7941" d="M35.741,115.188c-1.065,0-1.932,0.866-1.932,1.932c0,1.064,0.866,1.931,1.932,1.931
		c1.063,0,1.929-0.866,1.929-1.931C37.669,116.055,36.804,115.188,35.741,115.188z"/>
	<circle fill="#EF7941" cx="44.814" cy="117.12" r="1.931"/>
	<circle fill="#EF7941" cx="53.89" cy="117.12" r="1.931"/>
	<circle fill="#EF7941" cx="62.965" cy="117.12" r="1.931"/>
	<circle fill="#EF7941" cx="72.04" cy="117.12" r="1.931"/>
	<circle fill="#EF7941" cx="81.115" cy="117.12" r="1.931"/>
	<circle fill="#EF7941" cx="26.665" cy="109.974" r="1.933"/>
	<path fill="#EF7941" d="M35.741,108.041c-1.065,0-1.932,0.866-1.932,1.932s0.866,1.934,1.932,1.934
		c1.063,0,1.929-0.868,1.929-1.934S36.804,108.041,35.741,108.041z"/>
	<circle fill="#EF7941" cx="44.814" cy="109.974" r="1.933"/>
	<circle fill="#EF7941" cx="53.89" cy="109.974" r="1.933"/>
	<circle fill="#EF7941" cx="62.965" cy="109.974" r="1.933"/>
	<circle fill="#EF7941" cx="72.04" cy="109.974" r="1.933"/>
	<circle fill="#EF7941" cx="81.115" cy="109.974" r="1.933"/>
	<circle fill="#EF7941" cx="26.665" cy="102.827" r="1.931"/>
	<path fill="#EF7941" d="M35.741,100.896c-1.065,0-1.932,0.866-1.932,1.931c0,1.065,0.866,1.931,1.932,1.931
		c1.063,0,1.929-0.865,1.929-1.931C37.669,101.763,36.804,100.896,35.741,100.896z"/>
	<circle fill="#EF7941" cx="44.814" cy="102.827" r="1.931"/>
	<circle fill="#EF7941" cx="53.89" cy="102.827" r="1.931"/>
	<circle fill="#EF7941" cx="62.965" cy="102.827" r="1.931"/>
	<circle fill="#EF7941" cx="72.04" cy="102.827" r="1.931"/>
	<circle fill="#EF7941" cx="81.115" cy="102.827" r="1.931"/>
	<circle fill="#EF7941" cx="26.665" cy="95.68" r="1.931"/>
	<path fill="#EF7941" d="M35.741,93.749c-1.065,0-1.932,0.866-1.932,1.932c0,1.064,0.866,1.93,1.932,1.93
		c1.063,0,1.929-0.865,1.929-1.93C37.669,94.615,36.804,93.749,35.741,93.749z"/>
	<circle fill="#EF7941" cx="44.814" cy="95.68" r="1.931"/>
	<circle fill="#EF7941" cx="53.89" cy="95.68" r="1.931"/>
	<circle fill="#EF7941" cx="62.965" cy="95.68" r="1.931"/>
	<circle fill="#EF7941" cx="72.04" cy="95.68" r="1.931"/>
	<circle fill="#EF7941" cx="81.115" cy="95.68" r="1.931"/>
	<circle fill="#EF7941" cx="26.665" cy="88.532" r="1.931"/>
	<path fill="#EF7941" d="M35.741,86.602c-1.065,0-1.932,0.866-1.932,1.932c0,1.064,0.866,1.93,1.932,1.93
		c1.063,0,1.929-0.865,1.929-1.93C37.669,87.468,36.804,86.602,35.741,86.602z"/>
	<circle fill="#EF7941" cx="44.814" cy="88.532" r="1.931"/>
	<circle fill="#EF7941" cx="53.89" cy="88.532" r="1.931"/>
	<circle fill="#EF7941" cx="62.965" cy="88.532" r="1.931"/>
	<circle fill="#EF7941" cx="72.04" cy="88.532" r="1.931"/>
	<circle fill="#EF7941" cx="81.115" cy="88.532" r="1.931"/>
	<path fill="#EF7941" d="M62.965,165.383c-0.773,0-1.432,0.465-1.74,1.122c0.375,0.109,0.751,0.216,1.129,0.319
		c0.191,0.054,0.379,0.111,0.571,0.163c0.087,0.023,0.172,0.05,0.26,0.074c0.186,0.049,0.368,0.109,0.555,0.156
		c0.003,0.033,0.018,0.061,0.018,0.094l1.102,0.17c0.006-0.06,0.035-0.109,0.035-0.17C64.895,166.248,64.029,165.383,62.965,165.383
		z"/>
	<path fill="#EF7941" d="M72.04,165.383c-1.064,0-1.93,0.865-1.93,1.929c0,0.535,0.22,1.021,0.573,1.37
		c0.729,0.124,1.458,0.247,2.192,0.354c0.642-0.314,1.096-0.962,1.096-1.724C73.971,166.248,73.104,165.383,72.04,165.383z"/>
	<path fill="#EF7941" d="M81.115,165.383c-1.064,0-1.93,0.865-1.93,1.929c0,1.065,0.866,1.933,1.93,1.933
		c1.063,0,1.929-0.867,1.929-1.933C83.044,166.248,82.178,165.383,81.115,165.383z"/>
	<path fill="#EF7941" d="M88.967,158.07c-1.064,0-1.932,0.866-1.932,1.929c0,1.066,0.867,1.934,1.932,1.934
		c1.062,0,1.93-0.867,1.93-1.934C90.896,158.937,90.029,158.07,88.967,158.07z"/>
	<path fill="#EF7941" d="M98.043,158.07c-1.066,0-1.932,0.866-1.932,1.929c0,1.066,0.865,1.934,1.932,1.934
		c1.062,0,1.93-0.867,1.93-1.934C99.973,158.937,99.105,158.07,98.043,158.07z"/>
	<path fill="#EF7941" d="M107.117,158.07c-1.066,0-1.932,0.866-1.932,1.929c0,1.066,0.865,1.934,1.932,1.934
		c1.064,0,1.93-0.867,1.93-1.934C109.047,158.937,108.182,158.07,107.117,158.07z"/>
	<path fill="#EF7941" d="M116.189,158.07c-1.064,0-1.93,0.866-1.93,1.929c0,1.066,0.865,1.934,1.93,1.934
		c1.066,0,1.932-0.867,1.932-1.934C118.121,158.937,117.256,158.07,116.189,158.07z"/>
	<path fill="#EF7941" d="M125.266,158.07c-1.064,0-1.93,0.866-1.93,1.929c0,0.251,0.057,0.487,0.143,0.706
		c0.344-0.174,0.689-0.348,1.029-0.526c0.145-0.077,0.291-0.146,0.436-0.224c0.154-0.081,0.312-0.155,0.465-0.238
		c0.148-0.08,0.293-0.166,0.441-0.247c0.326-0.18,0.645-0.373,0.969-0.559C126.469,158.417,125.918,158.07,125.266,158.07z"/>
	<path fill="#EF7941" d="M88.967,150.923c-1.064,0-1.932,0.866-1.932,1.931c0,1.065,0.867,1.932,1.932,1.932
		c1.062,0,1.93-0.866,1.93-1.932C90.896,151.789,90.029,150.923,88.967,150.923z"/>
	<path fill="#EF7941" d="M98.043,150.923c-1.066,0-1.932,0.866-1.932,1.931c0,1.065,0.865,1.932,1.932,1.932
		c1.062,0,1.93-0.866,1.93-1.932C99.973,151.789,99.105,150.923,98.043,150.923z"/>
	<circle fill="#EF7941" cx="107.117" cy="152.854" r="1.931"/>
	<circle fill="#EF7941" cx="116.189" cy="152.854" r="1.931"/>
	<circle fill="#EF7941" cx="125.266" cy="152.854" r="1.931"/>
	<path fill="#EF7941" d="M134.342,150.923c-1.064,0-1.93,0.866-1.93,1.931c0,0.802,0.492,1.489,1.188,1.78
		c0.893-0.623,1.779-1.257,2.646-1.914C136.174,151.721,135.361,150.923,134.342,150.923z"/>
	<path fill="#EF7941" d="M88.967,143.775c-1.064,0-1.932,0.866-1.932,1.931c0,1.065,0.867,1.932,1.932,1.932
		c1.062,0,1.93-0.866,1.93-1.932C90.896,144.642,90.029,143.775,88.967,143.775z"/>
	<path fill="#EF7941" d="M98.043,143.775c-1.066,0-1.932,0.866-1.932,1.931c0,1.065,0.865,1.932,1.932,1.932
		c1.062,0,1.93-0.866,1.93-1.932C99.973,144.642,99.105,143.775,98.043,143.775z"/>
	<circle fill="#EF7941" cx="107.117" cy="145.707" r="1.931"/>
	<circle fill="#EF7941" cx="116.189" cy="145.707" r="1.931"/>
	<circle fill="#EF7941" cx="125.266" cy="145.707" r="1.931"/>
	<circle fill="#EF7941" cx="134.342" cy="145.707" r="1.931"/>
	<path fill="#EF7941" d="M143.416,143.775c-1.064,0-1.932,0.866-1.932,1.931c0,0.759,0.451,1.401,1.088,1.717
		c0.34-0.312,0.668-0.637,1.002-0.955c0.199-0.189,0.4-0.377,0.6-0.569c0.332-0.324,0.676-0.64,1.004-0.97
		C144.877,144.252,144.203,143.775,143.416,143.775z"/>
	<path fill="#EF7941" d="M88.967,136.628c-1.064,0-1.932,0.866-1.932,1.932c0,1.066,0.867,1.934,1.932,1.934
		c1.062,0,1.93-0.867,1.93-1.934C90.896,137.494,90.029,136.628,88.967,136.628z"/>
	<path fill="#EF7941" d="M98.043,136.628c-1.066,0-1.932,0.866-1.932,1.932c0,1.066,0.865,1.934,1.932,1.934
		c1.062,0,1.93-0.867,1.93-1.934C99.973,137.494,99.105,136.628,98.043,136.628z"/>
	<circle fill="#EF7941" cx="107.117" cy="138.561" r="1.933"/>
	<circle fill="#EF7941" cx="116.189" cy="138.561" r="1.933"/>
	<circle fill="#EF7941" cx="125.266" cy="138.561" r="1.933"/>
	<circle fill="#EF7941" cx="134.342" cy="138.561" r="1.933"/>
	<circle fill="#EF7941" cx="143.416" cy="138.561" r="1.933"/>
	<path fill="#EF7941" d="M88.967,129.483c-1.064,0-1.932,0.866-1.932,1.931c0,1.065,0.867,1.932,1.932,1.932
		c1.062,0,1.93-0.866,1.93-1.932C90.896,130.35,90.029,129.483,88.967,129.483z"/>
	<path fill="#EF7941" d="M98.043,129.483c-1.066,0-1.932,0.866-1.932,1.931c0,1.065,0.865,1.932,1.932,1.932
		c1.062,0,1.93-0.866,1.93-1.932C99.973,130.35,99.105,129.483,98.043,129.483z"/>
	<circle fill="#EF7941" cx="107.117" cy="131.415" r="1.931"/>
	<circle fill="#EF7941" cx="116.189" cy="131.415" r="1.931"/>
	<circle fill="#EF7941" cx="125.266" cy="131.415" r="1.931"/>
	<circle fill="#EF7941" cx="134.342" cy="131.415" r="1.931"/>
	<circle fill="#EF7941" cx="143.416" cy="131.415" r="1.931"/>
	<path fill="#EF7941" d="M88.967,122.336c-1.064,0-1.932,0.866-1.932,1.931c0,1.065,0.867,1.932,1.932,1.932
		c1.062,0,1.93-0.866,1.93-1.932C90.896,123.202,90.029,122.336,88.967,122.336z"/>
	<path fill="#EF7941" d="M98.043,122.336c-1.066,0-1.932,0.866-1.932,1.931c0,1.065,0.865,1.932,1.932,1.932
		c1.062,0,1.93-0.866,1.93-1.932C99.973,123.202,99.105,122.336,98.043,122.336z"/>
	<circle fill="#EF7941" cx="107.117" cy="124.267" r="1.931"/>
	<circle fill="#EF7941" cx="116.189" cy="124.267" r="1.931"/>
	<circle fill="#EF7941" cx="125.266" cy="124.267" r="1.931"/>
	<circle fill="#EF7941" cx="134.342" cy="124.267" r="1.931"/>
	<circle fill="#EF7941" cx="143.416" cy="124.267" r="1.931"/>
	<path fill="#EF7941" d="M88.967,115.188c-1.064,0-1.932,0.866-1.932,1.932c0,1.064,0.867,1.931,1.932,1.931
		c1.062,0,1.93-0.866,1.93-1.931C90.896,116.055,90.029,115.188,88.967,115.188z"/>
	<path fill="#EF7941" d="M98.043,115.188c-1.066,0-1.932,0.866-1.932,1.932c0,1.064,0.865,1.931,1.932,1.931
		c1.062,0,1.93-0.866,1.93-1.931C99.973,116.055,99.105,115.188,98.043,115.188z"/>
	<circle fill="#EF7941" cx="107.117" cy="117.12" r="1.931"/>
	<circle fill="#EF7941" cx="116.189" cy="117.12" r="1.931"/>
	<circle fill="#EF7941" cx="125.266" cy="117.12" r="1.931"/>
	<circle fill="#EF7941" cx="134.342" cy="117.12" r="1.931"/>
	<circle fill="#EF7941" cx="143.416" cy="117.12" r="1.931"/>
	<path fill="#EF7941" d="M88.967,108.041c-1.064,0-1.932,0.866-1.932,1.932s0.867,1.934,1.932,1.934c1.062,0,1.93-0.868,1.93-1.934
		S90.029,108.041,88.967,108.041z"/>
	<path fill="#EF7941" d="M98.043,108.041c-1.066,0-1.932,0.866-1.932,1.932s0.865,1.934,1.932,1.934c1.062,0,1.93-0.868,1.93-1.934
		S99.105,108.041,98.043,108.041z"/>
	<circle fill="#EF7941" cx="107.117" cy="109.974" r="1.933"/>
	<circle fill="#EF7941" cx="116.189" cy="109.974" r="1.933"/>
	<circle fill="#EF7941" cx="125.266" cy="109.974" r="1.933"/>
	<circle fill="#EF7941" cx="134.342" cy="109.974" r="1.933"/>
	<circle fill="#EF7941" cx="143.416" cy="109.974" r="1.933"/>
	<path fill="#EF7941" d="M88.967,100.896c-1.064,0-1.932,0.866-1.932,1.931c0,1.065,0.867,1.931,1.932,1.931
		c1.062,0,1.93-0.865,1.93-1.931C90.896,101.763,90.029,100.896,88.967,100.896z"/>
	<path fill="#EF7941" d="M98.043,100.896c-1.066,0-1.932,0.866-1.932,1.931c0,1.065,0.865,1.931,1.932,1.931
		c1.062,0,1.93-0.865,1.93-1.931C99.973,101.763,99.105,100.896,98.043,100.896z"/>
	<circle fill="#EF7941" cx="107.117" cy="102.827" r="1.931"/>
	<circle fill="#EF7941" cx="116.189" cy="102.827" r="1.931"/>
	<circle fill="#EF7941" cx="125.266" cy="102.827" r="1.931"/>
	<circle fill="#EF7941" cx="134.342" cy="102.827" r="1.931"/>
	<circle fill="#EF7941" cx="143.416" cy="102.827" r="1.931"/>
	<path fill="#EF7941" d="M88.967,93.749c-1.064,0-1.932,0.866-1.932,1.932c0,1.064,0.867,1.93,1.932,1.93
		c1.062,0,1.93-0.865,1.93-1.93C90.896,94.615,90.029,93.749,88.967,93.749z"/>
	<path fill="#EF7941" d="M98.043,93.749c-1.066,0-1.932,0.866-1.932,1.932c0,1.064,0.865,1.93,1.932,1.93
		c1.062,0,1.93-0.865,1.93-1.93C99.973,94.615,99.105,93.749,98.043,93.749z"/>
	<circle fill="#EF7941" cx="107.117" cy="95.68" r="1.931"/>
	<circle fill="#EF7941" cx="116.189" cy="95.68" r="1.931"/>
	<circle fill="#EF7941" cx="125.266" cy="95.68" r="1.931"/>
	<circle fill="#EF7941" cx="134.342" cy="95.68" r="1.931"/>
	<circle fill="#EF7941" cx="143.416" cy="95.68" r="1.931"/>
	<path fill="#EF7941" d="M88.967,86.602c-1.064,0-1.932,0.866-1.932,1.932c0,1.064,0.867,1.93,1.932,1.93
		c1.062,0,1.93-0.865,1.93-1.93C90.896,87.468,90.029,86.602,88.967,86.602z"/>
	<path fill="#EF7941" d="M98.043,86.602c-1.066,0-1.932,0.866-1.932,1.932c0,1.064,0.865,1.93,1.932,1.93
		c1.062,0,1.93-0.865,1.93-1.93C99.973,87.468,99.105,86.602,98.043,86.602z"/>
	<circle fill="#EF7941" cx="107.117" cy="88.532" r="1.931"/>
	<circle fill="#EF7941" cx="116.189" cy="88.532" r="1.931"/>
	<circle fill="#EF7941" cx="125.266" cy="88.532" r="1.931"/>
	<circle fill="#EF7941" cx="134.342" cy="88.532" r="1.931"/>
	<circle fill="#EF7941" cx="143.416" cy="88.532" r="1.931"/>
	<path fill="#EF7941" d="M149.203,138.56c0,0.53,0.215,1.01,0.561,1.359c0.248-0.293,0.51-0.576,0.756-0.874
		c0.107-0.13,0.207-0.268,0.314-0.397c0.111-0.137,0.215-0.278,0.326-0.416c0.104-0.128,0.203-0.259,0.305-0.388
		c0.232-0.292,0.463-0.585,0.691-0.88c-0.301-0.193-0.641-0.336-1.027-0.336C150.066,136.628,149.203,137.494,149.203,138.56z"/>
	<path fill="#EF7941" d="M151.129,129.483c-1.062,0-1.926,0.866-1.926,1.931c0,1.065,0.863,1.932,1.926,1.932
		c1.068,0,1.936-0.866,1.936-1.932C153.064,130.35,152.197,129.483,151.129,129.483z"/>
	<path fill="#EF7941" d="M151.129,122.336c-1.062,0-1.926,0.866-1.926,1.931c0,1.065,0.863,1.932,1.926,1.932
		c1.068,0,1.936-0.866,1.936-1.932C153.064,123.202,152.197,122.336,151.129,122.336z"/>
	<path fill="#EF7941" d="M158.275,124.267c0,0.768,0.457,1.419,1.107,1.731c0.184-0.33,0.363-0.662,0.541-0.995
		c0.082-0.153,0.158-0.312,0.238-0.466c0.092-0.173,0.178-0.348,0.268-0.521c0.068-0.134,0.137-0.267,0.205-0.401
		c0.17-0.333,0.346-0.663,0.512-0.999c-0.281-0.163-0.592-0.28-0.941-0.28C159.141,122.336,158.275,123.202,158.275,124.267z"/>
	<path fill="#EF7941" d="M151.129,115.188c-1.062,0-1.926,0.866-1.926,1.932c0,1.064,0.863,1.931,1.926,1.931
		c1.068,0,1.936-0.866,1.936-1.931C153.064,116.055,152.197,115.188,151.129,115.188z"/>
	<circle fill="#EF7941" cx="160.205" cy="117.12" r="1.931"/>
	<path fill="#EF7941" d="M151.129,108.041c-1.062,0-1.926,0.866-1.926,1.932s0.863,1.934,1.926,1.934
		c1.068,0,1.936-0.868,1.936-1.934S152.197,108.041,151.129,108.041z"/>
	<circle fill="#EF7941" cx="160.205" cy="109.974" r="1.933"/>
	<path fill="#EF7941" d="M151.129,100.896c-1.062,0-1.926,0.866-1.926,1.931c0,1.065,0.863,1.931,1.926,1.931
		c1.068,0,1.936-0.865,1.936-1.931C153.064,101.763,152.197,100.896,151.129,100.896z"/>
	<circle fill="#EF7941" cx="160.205" cy="102.827" r="1.931"/>
	<path fill="#EF7941" d="M167.352,102.827c0,0.438,0.172,0.821,0.418,1.146c0.213-0.933,0.416-1.868,0.598-2.812
		C167.771,101.488,167.352,102.1,167.352,102.827z"/>
	<path fill="#EF7941" d="M151.129,93.749c-1.062,0-1.926,0.866-1.926,1.932c0,1.064,0.863,1.93,1.926,1.93
		c1.068,0,1.936-0.865,1.936-1.93C153.064,94.615,152.197,93.749,151.129,93.749z"/>
	<circle fill="#EF7941" cx="160.205" cy="95.68" r="1.931"/>
	<path fill="#EF7941" d="M167.352,95.681c0,0.961,0.719,1.725,1.639,1.871c0.053-0.367,0.09-0.74,0.141-1.108
		c0.021-0.168,0.043-0.338,0.064-0.507c0.025-0.198,0.051-0.396,0.074-0.595c0.02-0.149,0.041-0.298,0.059-0.447
		c0.043-0.37,0.102-0.735,0.141-1.108c-0.066-0.006-0.121-0.037-0.188-0.037C168.217,93.749,167.352,94.615,167.352,95.681z"/>
	<path fill="#EF7941" d="M151.129,86.602c-1.062,0-1.926,0.866-1.926,1.932c0,1.064,0.863,1.93,1.926,1.93
		c1.068,0,1.936-0.865,1.936-1.93C153.064,87.468,152.197,86.602,151.129,86.602z"/>
	<circle fill="#EF7941" cx="160.205" cy="88.532" r="1.931"/>
	<path fill="#EF7941" d="M167.352,88.533c0,1.064,0.865,1.93,1.93,1.93c0.16,0,0.303-0.055,0.451-0.09
		c0.025-0.421,0.061-0.836,0.08-1.257c0.018-0.38,0.016-0.765,0.029-1.146c0.014-0.415,0.023-0.833,0.031-1.248
		c-0.189-0.062-0.381-0.12-0.592-0.12C168.217,86.602,167.352,87.468,167.352,88.533z"/>
	<path fill="#EF7941" d="M88.967,165.383c-1.064,0-1.932,0.865-1.932,1.929c0,1.065,0.867,1.933,1.932,1.933
		c1.062,0,1.93-0.867,1.93-1.933C90.896,166.248,90.029,165.383,88.967,165.383z"/>
	<path fill="#EF7941" d="M98.043,165.383c-1.066,0-1.932,0.865-1.932,1.929c0,0.762,0.451,1.409,1.094,1.724
		c0.736-0.106,1.465-0.229,2.193-0.354c0.354-0.35,0.574-0.835,0.574-1.37C99.973,166.248,99.105,165.383,98.043,165.383z"/>
	<path fill="#EF7941" d="M107.117,165.383c-1.066,0-1.932,0.865-1.932,1.929c0,0.061,0.029,0.112,0.033,0.171
		c0.373-0.091,0.75-0.168,1.123-0.263c0.188-0.049,0.369-0.109,0.557-0.158c0.086-0.024,0.172-0.051,0.258-0.074
		c0.191-0.052,0.381-0.109,0.572-0.163c0.377-0.104,0.752-0.21,1.127-0.319C108.549,165.846,107.889,165.383,107.117,165.383z"/>
</g>
</svg>
