<?xml version="1.0" encoding="utf-8"?>
<!-- Generator: Adobe Illustrator 16.0.0, SVG Export Plug-In . SVG Version: 6.00 Build 0)  -->
<!DOCTYPE svg PUBLIC "-//W3C//DTD SVG 1.1//EN" "http://www.w3.org/Graphics/SVG/1.1/DTD/svg11.dtd">
<svg version="1.1" id="Layer_1" xmlns="http://www.w3.org/2000/svg" xmlns:xlink="http://www.w3.org/1999/xlink" x="0px" y="0px"
	 width="72.24px" height="72.24px" viewBox="0 0 72.24 72.24" enable-background="new 0 0 72.24 72.24" xml:space="preserve">
<g>
	<path fill="#FFFFFF" d="M70.608,47.022c0,1.1-0.9,2-2,2H3.632c-1.1,0-2-0.9-2-2V7.112c0-1.1,0.9-2,2-2h64.976c1.1,0,2,0.9,2,2
		V47.022z"/>
</g>
<path d="M68.62,46.62h-64v-37h64V46.62z M5.62,45.62h62v-35h-62V45.62z"/>
<rect x="6.808" y="11.368" fill="#ECECEC" width="58.716" height="32.649"/>
<g>
	<rect x="32.25" y="49.573" fill="#FFFFFF" width="8.343" height="16.525"/>
	<path d="M68.608,4.112H3.632c-1.654,0-3,1.346-3,3v39.91c0,1.654,1.346,3,3,3H31.75v15.503H18.62v3.095h36v-3.095H41.093V50.022
		h27.516c1.654,0,3-1.346,3-3V7.112C71.608,5.458,70.263,4.112,68.608,4.112z M53.62,66.557v1.032h-34v-1.032H31.75h9.343H53.62z
		 M40.093,65.48H32.75V50.022h7.343V65.48z M69.608,47.022c0,0.551-0.449,1-1,1H3.632c-0.551,0-1-0.449-1-1V7.112
		c0-0.551,0.449-1,1-1h64.976c0.551,0,1,0.449,1,1V47.022z"/>
</g>
</svg>
