<?xml version="1.0" encoding="utf-8"?>
<!-- Generator: Adobe Illustrator 16.0.0, SVG Export Plug-In . SVG Version: 6.00 Build 0)  -->
<!DOCTYPE svg PUBLIC "-//W3C//DTD SVG 1.1//EN" "http://www.w3.org/Graphics/SVG/1.1/DTD/svg11.dtd">
<svg version="1.1" id="Layer_1" xmlns="http://www.w3.org/2000/svg" xmlns:xlink="http://www.w3.org/1999/xlink" x="0px" y="0px"
	 width="72.24px" height="72.24px" viewBox="0 0 72.24 72.24" enable-background="new 0 0 72.24 72.24" xml:space="preserve">
<g>
	<rect x="36.825" y="49.807" width="8.191" height="5.135"/>
	<g>
		<path fill="#FFFFFF" d="M36.094,1.138c-6.295,0-11.398,1.29-11.398,2.882v63.563c0,1.942,5.103,3.52,11.398,3.52
			c6.294-0.001,11.397-1.577,11.397-3.52V4.02C47.491,2.428,42.388,1.138,36.094,1.138z"/>
		<path fill="#1D1D1B" d="M36.094,72.08c-5.96,0-12.376-1.407-12.376-4.497V4.02c0-3.047,7.779-3.859,12.376-3.859
			c4.597,0,12.376,0.812,12.376,3.859v63.563C48.47,70.673,42.054,72.08,36.094,72.08z M36.094,2.116
			c-6.31,0-10.09,1.267-10.433,1.976l0.013,63.491c0,0.76,3.545,2.541,10.42,2.541c6.874,0,10.419-1.781,10.419-2.541V4.02
			C46.183,3.383,42.403,2.116,36.094,2.116z"/>
	</g>
	<path d="M36.12,8.36c-4.606,0-12.403-0.863-12.403-4.1c0-3.237,7.796-4.101,12.403-4.101c4.607,0,12.402,0.863,12.402,4.101
		C48.522,7.497,40.728,8.36,36.12,8.36z M36.12,2.116c-6.861,0-10.255,1.55-10.449,2.167c0.194,0.571,3.588,2.121,10.449,2.121
		s10.254-1.55,10.449-2.167C46.374,3.666,42.981,2.116,36.12,2.116z"/>
	<path d="M36.12,46.951c-5.921,0-11.914-1.24-11.914-3.612h0.978c0,1.101,4.16,2.635,10.936,2.635s10.936-1.534,10.936-2.635h0.979
		C48.034,45.711,42.042,46.951,36.12,46.951z"/>
	<path d="M36.12,65.622c-5.921,0-11.914-1.239-11.914-3.609h0.978c0,1.099,4.16,2.632,10.936,2.632s10.936-1.533,10.936-2.632h0.979
		C48.034,64.383,42.042,65.622,36.12,65.622z"/>
	<g>
		<path d="M37.436,48.816c-0.009-0.248,0.185-0.46,0.433-0.468l0,0c0.246-0.01,0.459,0.186,0.468,0.432l0,0
			c0.014,0.249-0.18,0.459-0.428,0.468l0,0c-0.009,0-0.013,0-0.022,0l0,0C37.647,49.248,37.449,49.061,37.436,48.816z
			 M39.204,48.722c-0.021-0.247,0.158-0.463,0.41-0.484l0,0c0.242-0.024,0.463,0.161,0.486,0.409l0,0
			c0.021,0.246-0.162,0.462-0.41,0.485l0,0c-0.012,0-0.027,0-0.041,0l0,0C39.421,49.132,39.224,48.956,39.204,48.722z M40.96,48.548
			c-0.031-0.249,0.139-0.479,0.381-0.51l0,0c0.248-0.036,0.479,0.135,0.514,0.377l0,0c0.033,0.249-0.139,0.478-0.381,0.515l0,0l0,0
			l0,0c-0.023,0-0.047,0.003-0.068,0.003l0,0C41.185,48.933,40.997,48.771,40.96,48.548z M42.71,48.269
			c-0.055-0.243,0.1-0.481,0.344-0.532l0,0c0.246-0.055,0.486,0.104,0.535,0.347l0,0c0.053,0.243-0.104,0.48-0.346,0.531l0,0l0,0
			l0,0c-0.033,0.008-0.064,0.013-0.096,0.013l0,0C42.94,48.627,42.755,48.479,42.71,48.269z M44.431,47.862
			c-0.078-0.234,0.055-0.49,0.287-0.567l0,0c0.238-0.075,0.49,0.054,0.566,0.293l0,0c0.076,0.233-0.049,0.486-0.287,0.567l0,0
			c0,0,0,0,0-0.006l0,0c-0.045,0.02-0.094,0.023-0.141,0.023l0,0C44.669,48.173,44.493,48.052,44.431,47.862z M46.091,47.26
			c-0.125-0.218-0.053-0.491,0.162-0.617l0,0c0.217-0.126,0.49-0.054,0.617,0.162l0,0c0.125,0.212,0.053,0.49-0.162,0.617l0,0l0,0
			l0,0c-0.072,0.04-0.148,0.059-0.225,0.059l0,0C46.325,47.48,46.177,47.402,46.091,47.26z"/>
		<path d="M33.902,48.78c0.009-0.246,0.221-0.441,0.468-0.432l0,0c0.248,0.008,0.442,0.22,0.433,0.468l0,0
			c-0.014,0.252-0.221,0.441-0.468,0.433l0,0l0,0l0,0C34.087,49.239,33.893,49.029,33.902,48.78z M32.548,49.132
			c-0.248-0.023-0.427-0.239-0.41-0.485l0,0c0.022-0.248,0.243-0.434,0.49-0.409l0,0c0.248,0.021,0.428,0.237,0.41,0.484l0,0
			c-0.023,0.234-0.221,0.41-0.45,0.41l0,0C32.575,49.132,32.562,49.132,32.548,49.132z M30.765,48.93c0,0,0,0,0-0.005l0,0
			c-0.243-0.032-0.414-0.261-0.378-0.51l0,0c0.037-0.242,0.261-0.413,0.509-0.377l0,0c0.248,0.031,0.414,0.261,0.383,0.51l0,0
			c-0.032,0.224-0.225,0.385-0.446,0.385l0,0C30.81,48.933,30.788,48.93,30.765,48.93z M28.997,48.614
			c-0.244-0.051-0.401-0.293-0.347-0.536l0,0c0.054-0.238,0.292-0.396,0.536-0.342l0,0c0.243,0.051,0.396,0.289,0.347,0.532l0,0
			c-0.045,0.21-0.235,0.354-0.442,0.354l0,0C29.06,48.622,29.028,48.622,28.997,48.614z M27.241,48.149
			c-0.234-0.075-0.365-0.328-0.288-0.562l0,0c0.076-0.239,0.329-0.368,0.567-0.293l0,0c0.234,0.077,0.365,0.333,0.288,0.567l0,0
			c-0.063,0.189-0.238,0.311-0.428,0.311l0,0C27.336,48.173,27.286,48.169,27.241,48.149z M25.531,47.417
			c-0.216-0.127-0.288-0.4-0.163-0.612l0,0c0.127-0.216,0.406-0.288,0.618-0.162l0,0c0.216,0.126,0.287,0.399,0.162,0.617l0,0
			c-0.085,0.14-0.234,0.221-0.387,0.221l0,0C25.68,47.48,25.603,47.462,25.531,47.417z"/>
	</g>
	<g>
		<path d="M37.436,50.829c-0.009-0.247,0.185-0.46,0.433-0.47l0,0c0.246-0.009,0.459,0.182,0.468,0.433l0,0
			c0.014,0.249-0.18,0.455-0.428,0.469l0,0c-0.009,0-0.013,0-0.022,0l0,0C37.647,51.261,37.449,51.071,37.436,50.829z
			 M39.204,50.733c-0.021-0.247,0.158-0.463,0.404-0.485l0,0c0.252-0.021,0.469,0.158,0.492,0.404l0,0
			c0.021,0.248-0.162,0.469-0.41,0.491l0,0c-0.012,0-0.027,0-0.041,0l0,0C39.421,51.144,39.224,50.969,39.204,50.733z M40.964,50.56
			c-0.035-0.249,0.135-0.479,0.377-0.515v0.006c0.248-0.036,0.479,0.134,0.51,0.377l0,0c0.037,0.247-0.135,0.477-0.377,0.51l0,0
			c-0.023,0.003-0.047,0.003-0.068,0.003l0,0C41.185,50.94,40.997,50.778,40.964,50.56z M42.71,50.28
			c-0.055-0.243,0.104-0.481,0.344-0.536v0.004c0.242-0.053,0.486,0.099,0.535,0.343l0,0c0.053,0.242-0.104,0.481-0.346,0.534l0,0
			c-0.033,0.01-0.064,0.01-0.096,0.01l0,0C42.94,50.635,42.755,50.491,42.71,50.28z M44.431,49.874
			c-0.078-0.238,0.055-0.49,0.287-0.566l0,0c0.238-0.076,0.49,0.053,0.566,0.288l0,0c0.076,0.237-0.049,0.489-0.287,0.566l0,0l0,0
			l0,0c-0.045,0.019-0.094,0.022-0.141,0.022l0,0C44.669,50.185,44.493,50.064,44.431,49.874z M46.091,49.271
			c-0.125-0.216-0.053-0.491,0.162-0.617l0,0c0.217-0.126,0.49-0.054,0.617,0.158l0,0c0.125,0.217,0.053,0.491-0.162,0.615l0,0
			c0,0,0,0,0,0.006l0,0c-0.072,0.04-0.148,0.059-0.225,0.059l0,0C46.325,49.492,46.177,49.41,46.091,49.271z"/>
		<path d="M33.902,50.792c0.009-0.251,0.221-0.441,0.468-0.433l0,0c0.248,0.01,0.442,0.223,0.433,0.47l0,0
			c-0.014,0.248-0.221,0.44-0.468,0.432l0,0l0,0l0,0C34.087,51.247,33.893,51.041,33.902,50.792z M32.548,51.144
			c-0.248-0.022-0.432-0.243-0.41-0.491l0,0c0.022-0.246,0.243-0.426,0.49-0.404l0,0c0.248,0.022,0.428,0.238,0.405,0.485l0,0
			c-0.018,0.235-0.216,0.41-0.445,0.41l0,0C32.575,51.144,32.562,51.144,32.548,51.144z M30.765,50.938
			c-0.243-0.037-0.414-0.263-0.378-0.51l0,0c0.032-0.247,0.261-0.418,0.509-0.383l0,0c0.248,0.036,0.419,0.266,0.383,0.515l0,0
			c-0.037,0.22-0.225,0.381-0.446,0.381l0,0C30.81,50.94,30.788,50.94,30.765,50.938z M28.997,50.625L28.997,50.625L28.997,50.625
			c-0.244-0.053-0.396-0.292-0.347-0.534l0,0c0.054-0.244,0.292-0.396,0.536-0.347l0,0c0.243,0.055,0.396,0.293,0.347,0.536l0,0
			c-0.045,0.211-0.235,0.354-0.442,0.354l0,0C29.06,50.635,29.028,50.635,28.997,50.625z M27.241,50.162
			c-0.234-0.077-0.365-0.329-0.288-0.566l0,0c0.076-0.235,0.329-0.364,0.567-0.288l0,0c0.234,0.076,0.365,0.332,0.288,0.566l0,0
			c-0.063,0.19-0.238,0.311-0.428,0.311l0,0C27.336,50.185,27.286,50.181,27.241,50.162z M25.531,49.428L25.531,49.428
			L25.531,49.428c-0.216-0.124-0.288-0.398-0.163-0.615l0,0c0.127-0.212,0.406-0.284,0.618-0.158l0,0
			c0.216,0.126,0.287,0.401,0.162,0.613l0,0c-0.085,0.143-0.234,0.225-0.392,0.225l0,0C25.68,49.492,25.603,49.474,25.531,49.428z"
			/>
	</g>
	<g>
		<path d="M37.436,54.853c-0.009-0.253,0.185-0.459,0.433-0.468l0,0c0.246-0.015,0.459,0.181,0.468,0.427l0,0
			c0.014,0.248-0.18,0.459-0.428,0.468l0,0c-0.009,0-0.013,0-0.022,0l0,0C37.647,55.279,37.449,55.091,37.436,54.853z
			 M39.204,54.758c-0.021-0.248,0.158-0.468,0.404-0.491l0,0c0.248-0.022,0.469,0.162,0.492,0.41l0,0
			c0.021,0.247-0.162,0.469-0.41,0.485l0,0c-0.012,0.004-0.027,0.004-0.041,0.004l0,0C39.421,55.166,39.224,54.991,39.204,54.758z
			 M40.964,54.578c-0.035-0.248,0.135-0.474,0.377-0.51l0,0c0.248-0.034,0.479,0.136,0.51,0.383l0,0
			c0.037,0.243-0.135,0.473-0.377,0.509l0,0c-0.023,0.004-0.047,0.004-0.062,0.004l0,0C41.185,54.964,40.997,54.803,40.964,54.578z
			 M42.706,54.304c-0.051-0.244,0.107-0.481,0.348-0.535l0,0c0.242-0.051,0.486,0.104,0.535,0.346l0,0
			c0.053,0.243-0.104,0.481-0.346,0.536l0,0l0,0l0,0c-0.033,0.004-0.064,0.008-0.096,0.008l0,0
			C42.94,54.658,42.755,54.516,42.706,54.304z M44.431,53.894c-0.078-0.234,0.055-0.486,0.287-0.562l0,0
			c0.238-0.08,0.49,0.05,0.566,0.289l0,0c0.076,0.232-0.049,0.49-0.287,0.565l0,0c-0.045,0.015-0.09,0.022-0.141,0.022l0,0
			C44.669,54.208,44.493,54.088,44.431,53.894z M46.091,53.291c-0.121-0.216-0.053-0.491,0.162-0.617l0,0
			c0.217-0.122,0.49-0.054,0.617,0.163l0,0c0.125,0.215,0.053,0.489-0.162,0.616l0,0l0,0l0,0c-0.072,0.04-0.148,0.063-0.225,0.063
			l0,0C46.325,53.517,46.177,53.435,46.091,53.291z"/>
		<path d="M33.902,54.812c0.009-0.246,0.221-0.441,0.468-0.432v0.005c0.248,0.009,0.442,0.215,0.433,0.468l0,0
			c-0.014,0.248-0.221,0.44-0.468,0.427l0,0l0,0l0,0C34.083,55.271,33.893,55.06,33.902,54.812z M32.548,55.162
			c-0.248-0.017-0.427-0.238-0.41-0.485l0,0c0.022-0.248,0.243-0.433,0.49-0.41l0,0c0.248,0.023,0.428,0.243,0.41,0.491l0,0
			c-0.023,0.233-0.221,0.408-0.45,0.408l0,0C32.575,55.166,32.562,55.166,32.548,55.162z M30.765,54.96L30.765,54.96L30.765,54.96
			c-0.243-0.036-0.414-0.266-0.378-0.509l0,0c0.037-0.247,0.261-0.417,0.509-0.383l0,0c0.243,0.037,0.414,0.262,0.383,0.51l0,0
			c-0.032,0.225-0.225,0.386-0.451,0.386l0,0C30.81,54.964,30.788,54.964,30.765,54.96z M28.997,54.65
			c-0.244-0.055-0.401-0.293-0.347-0.536l0,0c0.054-0.242,0.292-0.401,0.536-0.346l0,0c0.243,0.049,0.396,0.291,0.347,0.535l0,0
			c-0.045,0.212-0.235,0.354-0.442,0.354l0,0C29.06,54.658,29.028,54.654,28.997,54.65z M27.241,54.186
			c-0.234-0.075-0.365-0.333-0.288-0.565l0,0c0.076-0.239,0.329-0.365,0.567-0.289l0,0c0.234,0.076,0.365,0.328,0.288,0.566l0,0
			c-0.063,0.19-0.238,0.311-0.428,0.311l0,0C27.336,54.208,27.286,54.2,27.241,54.186z M25.531,53.453L25.531,53.453L25.531,53.453
			c-0.216-0.127-0.288-0.405-0.163-0.616l0,0c0.127-0.217,0.406-0.289,0.618-0.163l0,0c0.216,0.126,0.287,0.401,0.162,0.617l0,0
			c-0.085,0.144-0.234,0.226-0.392,0.226l0,0C25.68,53.517,25.603,53.493,25.531,53.453z"/>
	</g>
	<g>
		<path d="M37.436,56.859c-0.009-0.247,0.185-0.458,0.433-0.468l0,0c0.246-0.01,0.459,0.186,0.468,0.433l0,0
			c0.014,0.247-0.18,0.458-0.433,0.467l0,0c-0.004,0-0.013,0-0.018,0l0,0C37.647,57.291,37.449,57.104,37.436,56.859z
			 M39.204,56.766c-0.021-0.248,0.158-0.464,0.41-0.487l0,0c0.246-0.021,0.463,0.162,0.486,0.411l0,0
			c0.021,0.246-0.162,0.464-0.41,0.485l0,0c-0.012,0.005-0.027,0.005-0.041,0.005l0,0C39.421,57.18,39.224,56.999,39.204,56.766z
			 M40.964,56.589c-0.035-0.247,0.135-0.473,0.377-0.507l0,0c0.248-0.036,0.479,0.134,0.514,0.382l0,0
			c0.033,0.242-0.139,0.472-0.381,0.508l0,0l0,0l0,0c-0.023,0-0.047,0.005-0.062,0.005l0,0
			C41.188,56.977,40.997,56.814,40.964,56.589z M42.71,56.315c-0.055-0.248,0.1-0.486,0.348-0.535l0,0
			c0.238-0.055,0.482,0.104,0.531,0.346l0,0c0.053,0.243-0.104,0.481-0.346,0.531l0,0c-0.033,0.01-0.064,0.014-0.096,0.014l0,0
			C42.94,56.671,42.755,56.527,42.71,56.315z M44.431,55.906c-0.078-0.235,0.055-0.491,0.287-0.567l0,0
			c0.238-0.076,0.49,0.054,0.566,0.293l0,0c0.076,0.233-0.053,0.489-0.287,0.566l0,0c-0.045,0.014-0.094,0.021-0.141,0.021l0,0
			C44.669,56.22,44.493,56.1,44.431,55.906z M46.091,55.303c-0.125-0.216-0.053-0.491,0.162-0.618l0,0
			c0.217-0.125,0.49-0.052,0.617,0.163l0,0c0.125,0.216,0.053,0.491-0.162,0.616l0,0l0,0l0,0c-0.072,0.041-0.148,0.059-0.225,0.059
			l0,0C46.331,55.522,46.177,55.445,46.091,55.303z"/>
		<path d="M33.902,56.824c0.009-0.247,0.221-0.442,0.468-0.433l0,0c0.248,0.01,0.442,0.221,0.433,0.468l0,0
			c-0.009,0.253-0.221,0.441-0.468,0.432l0,0l0,0l0,0C34.087,57.282,33.893,57.071,33.902,56.824z M32.548,57.175
			c-0.248-0.021-0.432-0.239-0.41-0.485l0,0c0.022-0.249,0.243-0.433,0.49-0.411l0,0c0.248,0.023,0.428,0.239,0.41,0.487l0,0
			c-0.023,0.233-0.221,0.414-0.45,0.414l0,0C32.575,57.18,32.562,57.18,32.548,57.175z M30.765,56.972L30.765,56.972L30.765,56.972
			c-0.243-0.036-0.414-0.266-0.378-0.508l0,0c0.037-0.248,0.261-0.418,0.509-0.382l0,0c0.248,0.034,0.419,0.26,0.383,0.507l0,0
			c-0.037,0.226-0.225,0.388-0.446,0.388l0,0C30.81,56.977,30.788,56.972,30.765,56.972z M28.997,56.657L28.997,56.657
			L28.997,56.657c-0.244-0.05-0.401-0.292-0.347-0.531l0,0c0.054-0.242,0.292-0.4,0.536-0.346l0,0
			c0.243,0.049,0.396,0.287,0.347,0.531l0,0c-0.045,0.211-0.235,0.359-0.442,0.359l0,0C29.06,56.671,29.028,56.667,28.997,56.657z
			 M27.241,56.198c-0.234-0.077-0.365-0.333-0.288-0.566l0,0c0.076-0.239,0.329-0.369,0.567-0.293l0,0
			c0.234,0.076,0.365,0.332,0.288,0.567l0,0C27.745,56.1,27.57,56.22,27.38,56.22l0,0C27.336,56.22,27.286,56.212,27.241,56.198z
			 M25.531,55.464c0,0,0,0,0-0.004l0,0c-0.216-0.126-0.288-0.4-0.163-0.612l0,0c0.127-0.215,0.401-0.288,0.618-0.163l0,0
			c0.216,0.127,0.287,0.402,0.162,0.618l0,0c-0.085,0.143-0.234,0.22-0.392,0.22l0,0C25.68,55.522,25.603,55.505,25.531,55.464z"/>
	</g>
	<g>
		<path d="M37.436,58.871c-0.009-0.247,0.185-0.458,0.433-0.468l0,0c0.246-0.009,0.459,0.181,0.468,0.432l0,0
			c0.014,0.248-0.18,0.455-0.428,0.468l0,0c-0.009,0-0.013,0-0.022,0l0,0C37.647,59.303,37.449,59.115,37.436,58.871z
			 M39.204,58.777c-0.021-0.247,0.158-0.464,0.41-0.487l0,0c0.242-0.021,0.463,0.163,0.486,0.407l0,0
			c0.021,0.251-0.162,0.467-0.41,0.49l0,0c-0.012,0-0.027,0-0.041,0l0,0C39.421,59.188,39.224,59.011,39.204,58.777z M40.964,58.602
			c-0.035-0.248,0.135-0.478,0.377-0.509l0,0c0.248-0.035,0.479,0.135,0.51,0.379l0,0c0.037,0.246-0.135,0.477-0.377,0.512l0,0
			c-0.023,0-0.047,0.005-0.062,0.005l0,0C41.188,58.988,40.997,58.821,40.964,58.602z M42.71,58.323
			c-0.055-0.243,0.1-0.481,0.344-0.537v0.006c0.242-0.055,0.486,0.104,0.535,0.347l0,0c0.053,0.238-0.104,0.481-0.346,0.53l0,0
			c-0.033,0.01-0.064,0.01-0.096,0.01l0,0C42.94,58.679,42.755,58.534,42.71,58.323z M44.431,57.918
			c-0.078-0.234,0.055-0.49,0.287-0.567l0,0c0.238-0.077,0.49,0.054,0.566,0.288l0,0c0.076,0.238-0.049,0.49-0.287,0.571l0,0
			c0,0,0,0,0-0.005l0,0c-0.045,0.018-0.094,0.022-0.141,0.022l0,0C44.669,58.228,44.493,58.107,44.431,57.918z M46.091,57.314
			c-0.121-0.216-0.053-0.49,0.162-0.618l0,0c0.217-0.125,0.49-0.053,0.617,0.163l0,0c0.125,0.212,0.053,0.491-0.162,0.612l0,0
			c0,0,0,0,0,0.005l0,0c-0.072,0.04-0.148,0.059-0.225,0.059l0,0C46.325,57.535,46.177,57.459,46.091,57.314z"/>
		<path d="M33.902,58.835c0.009-0.251,0.221-0.44,0.468-0.432l0,0c0.248,0.01,0.442,0.221,0.433,0.468l0,0
			c-0.014,0.248-0.221,0.441-0.468,0.432l0,0l0,0l0,0C34.087,59.295,33.893,59.083,33.902,58.835z M32.548,59.188
			c-0.248-0.023-0.427-0.239-0.41-0.49l0,0c0.022-0.244,0.243-0.429,0.49-0.407l0,0c0.248,0.023,0.428,0.24,0.41,0.487l0,0
			c-0.023,0.233-0.221,0.41-0.45,0.41l0,0C32.575,59.188,32.562,59.188,32.548,59.188z M30.77,58.983c0,0,0,0,0-0.004l0,0
			c-0.248-0.031-0.419-0.262-0.383-0.508l0,0c0.037-0.244,0.261-0.414,0.509-0.379v-0.005c0.243,0.036,0.414,0.266,0.383,0.514l0,0
			c-0.032,0.22-0.225,0.387-0.446,0.387l0,0C30.81,58.988,30.788,58.983,30.77,58.983z M28.997,58.669L28.997,58.669L28.997,58.669
			c-0.244-0.054-0.401-0.292-0.347-0.535l0,0c0.054-0.242,0.292-0.396,0.536-0.348l0,0c0.243,0.056,0.396,0.294,0.347,0.537l0,0
			c-0.045,0.211-0.235,0.355-0.442,0.355l0,0C29.06,58.679,29.028,58.679,28.997,58.669z M27.241,58.205
			c-0.234-0.076-0.365-0.328-0.288-0.566l0,0c0.076-0.234,0.329-0.365,0.567-0.288l0,0c0.234,0.077,0.365,0.333,0.288,0.567l0,0
			c-0.063,0.189-0.238,0.31-0.428,0.31l0,0C27.336,58.228,27.286,58.223,27.241,58.205z M25.531,57.472L25.531,57.472L25.531,57.472
			c-0.216-0.126-0.288-0.4-0.163-0.617l0,0c0.127-0.211,0.401-0.283,0.618-0.158l0,0c0.216,0.128,0.287,0.402,0.162,0.618l0,0
			c-0.085,0.139-0.234,0.221-0.392,0.221l0,0C25.68,57.535,25.603,57.517,25.531,57.472z"/>
	</g>
	<g>
		<path d="M37.436,61.095c-0.009-0.248,0.185-0.458,0.433-0.468l0,0c0.246-0.014,0.459,0.18,0.468,0.428l0,0
			c0.009,0.246-0.18,0.458-0.428,0.468l0,0c-0.009,0-0.013,0-0.022,0l0,0C37.647,61.522,37.449,61.334,37.436,61.095z M39.204,61
			c-0.021-0.247,0.158-0.468,0.41-0.49l0,0c0.242-0.021,0.463,0.162,0.486,0.409l0,0c0.021,0.249-0.162,0.469-0.41,0.491l0,0
			c-0.012,0-0.027,0-0.041,0l0,0C39.421,61.41,39.224,61.234,39.204,61z M40.964,60.819c-0.035-0.242,0.135-0.472,0.377-0.508l0,0
			c0.248-0.035,0.479,0.136,0.514,0.384l0,0c0.033,0.247-0.139,0.473-0.381,0.508l0,0c-0.023,0.005-0.047,0.005-0.068,0.005l0,0
			C41.185,61.208,40.997,61.045,40.964,60.819z M42.71,60.546c-0.055-0.243,0.1-0.481,0.344-0.535l0,0
			c0.246-0.05,0.486,0.104,0.535,0.347l0,0c0.053,0.242-0.104,0.481-0.346,0.535l0,0l0,0l0,0c-0.033,0.005-0.064,0.01-0.096,0.01
			l0,0C42.94,60.902,42.755,60.757,42.71,60.546z M44.431,60.142c-0.078-0.238,0.055-0.491,0.287-0.568l0,0
			c0.238-0.076,0.49,0.051,0.566,0.289l0,0c0.076,0.233-0.049,0.489-0.287,0.567l0,0l0,0l0,0c-0.045,0.013-0.094,0.021-0.141,0.021
			l0,0C44.669,60.451,44.493,60.33,44.431,60.142z M46.091,59.534c-0.125-0.212-0.053-0.491,0.162-0.618v0.005
			c0.217-0.125,0.49-0.059,0.617,0.157l0,0c0.125,0.217,0.053,0.49-0.162,0.617l0,0l0,0l0,0c-0.072,0.04-0.148,0.062-0.225,0.062
			l0,0C46.325,59.757,46.177,59.678,46.091,59.534z"/>
		<path d="M33.902,61.055c0.009-0.248,0.221-0.441,0.468-0.428l0,0c0.248,0.01,0.442,0.22,0.433,0.468l0,0
			c-0.014,0.248-0.221,0.441-0.468,0.428l0,0c0,0,0,0,0,0.005l0,0C34.083,61.513,33.893,61.301,33.902,61.055z M32.548,61.41
			c-0.248-0.022-0.432-0.242-0.41-0.491l0,0c0.022-0.247,0.243-0.431,0.49-0.409l0,0c0.248,0.022,0.428,0.243,0.41,0.49l0,0
			c-0.023,0.234-0.221,0.41-0.45,0.41l0,0C32.575,61.41,32.562,61.41,32.548,61.41z M30.77,61.203
			c-0.248-0.035-0.419-0.266-0.383-0.508l0,0c0.032-0.248,0.261-0.419,0.509-0.384l0,0c0.248,0.036,0.414,0.262,0.383,0.508l0,0
			c-0.037,0.226-0.225,0.389-0.446,0.389l0,0C30.81,61.208,30.788,61.208,30.77,61.203z M28.997,60.893
			c-0.244-0.054-0.401-0.293-0.347-0.535l0,0c0.054-0.243,0.292-0.396,0.536-0.347l0,0c0.243,0.054,0.396,0.292,0.347,0.535l0,0
			c-0.045,0.211-0.235,0.356-0.442,0.356l0,0C29.06,60.902,29.028,60.897,28.997,60.893z M27.241,60.43
			c-0.234-0.078-0.365-0.334-0.288-0.567l0,0c0.076-0.234,0.329-0.365,0.567-0.289l0,0c0.234,0.077,0.365,0.33,0.288,0.568l0,0
			c-0.063,0.188-0.238,0.31-0.428,0.31l0,0C27.336,60.451,27.286,60.442,27.241,60.43z M25.531,59.695
			c-0.216-0.127-0.288-0.405-0.163-0.617l0,0c0.127-0.216,0.406-0.287,0.618-0.162l0,0c0.216,0.127,0.287,0.401,0.162,0.618l0,0
			c-0.085,0.144-0.234,0.223-0.392,0.223l0,0C25.68,59.757,25.603,59.735,25.531,59.695z"/>
	</g>
	<g>
		<path d="M37.436,63.103c-0.009-0.248,0.185-0.454,0.433-0.468l0,0c0.246-0.01,0.459,0.183,0.468,0.432l0,0
			c0.014,0.248-0.18,0.459-0.428,0.469l0,0c-0.009,0-0.013,0-0.022,0l0,0C37.647,63.535,37.449,63.345,37.436,63.103z
			 M39.204,63.009c-0.021-0.247,0.162-0.464,0.404-0.486l0,0c0.248-0.023,0.469,0.162,0.492,0.408l0,0
			c0.021,0.249-0.162,0.464-0.41,0.487l0,0c-0.012,0.004-0.027,0.004-0.041,0.004l0,0C39.421,63.422,39.224,63.246,39.204,63.009z
			 M40.964,62.832c-0.035-0.247,0.135-0.473,0.383-0.509h-0.006c0.248-0.037,0.479,0.136,0.51,0.384l0,0
			c0.037,0.243-0.135,0.473-0.377,0.509l0,0l0,0l0,0c-0.023,0.004-0.047,0.004-0.062,0.004l0,0
			C41.185,63.22,40.997,63.057,40.964,62.832z M42.71,62.558c-0.055-0.248,0.1-0.485,0.348-0.536l0,0
			c0.238-0.053,0.482,0.104,0.531,0.348l0,0c0.053,0.242-0.104,0.481-0.346,0.535l0,0c-0.033,0.005-0.064,0.01-0.096,0.01l0,0
			C42.94,62.914,42.755,62.77,42.71,62.558z M44.431,62.148c-0.078-0.233,0.055-0.49,0.287-0.562v-0.005
			c0.238-0.077,0.49,0.055,0.566,0.293l0,0c0.076,0.233-0.049,0.489-0.287,0.567l0,0c-0.045,0.014-0.094,0.021-0.141,0.021l0,0
			C44.669,62.463,44.493,62.341,44.431,62.148z M46.091,61.546c-0.125-0.217-0.053-0.491,0.162-0.617l0,0
			c0.217-0.126,0.49-0.054,0.617,0.161l0,0c0.125,0.217,0.053,0.491-0.162,0.616l0,0l0,0l0,0c-0.072,0.042-0.148,0.064-0.225,0.064
			l0,0C46.325,61.771,46.177,61.689,46.091,61.546z"/>
		<path d="M33.902,63.066c0.009-0.249,0.221-0.441,0.468-0.432l0,0c0.248,0.014,0.442,0.22,0.433,0.468l0,0
			c-0.009,0.252-0.221,0.445-0.468,0.433l0,0l0,0l0,0C34.083,63.525,33.893,63.314,33.902,63.066z M32.548,63.418
			c-0.248-0.022-0.432-0.238-0.41-0.487l0,0c0.022-0.246,0.243-0.432,0.49-0.408l0,0c0.248,0.022,0.428,0.239,0.405,0.486l0,0
			c-0.018,0.237-0.216,0.413-0.445,0.413l0,0C32.575,63.422,32.562,63.422,32.548,63.418z M30.765,63.216
			c-0.243-0.036-0.414-0.266-0.378-0.509l0,0c0.032-0.248,0.261-0.421,0.509-0.384l0,0c0.243,0.036,0.419,0.262,0.383,0.509l0,0
			c-0.032,0.225-0.225,0.388-0.446,0.388l0,0C30.81,63.22,30.788,63.216,30.765,63.216z M28.997,62.904c0,0,0,0,0-0.004l0,0
			c-0.244-0.05-0.401-0.289-0.347-0.531l0,0c0.054-0.244,0.292-0.4,0.536-0.348l0,0c0.243,0.051,0.396,0.288,0.347,0.536l0,0
			c-0.045,0.212-0.235,0.356-0.442,0.356l0,0C29.06,62.914,29.028,62.909,28.997,62.904z M27.241,62.441
			c-0.234-0.078-0.365-0.334-0.288-0.567l0,0c0.076-0.238,0.329-0.37,0.567-0.288l0,0c0.234,0.072,0.365,0.329,0.288,0.562l0,0
			c-0.063,0.192-0.238,0.314-0.428,0.314l0,0C27.336,62.463,27.286,62.455,27.241,62.441z M25.531,61.707
			c-0.216-0.126-0.288-0.406-0.163-0.617l0,0c0.127-0.215,0.401-0.287,0.618-0.161l0,0c0.216,0.126,0.287,0.4,0.162,0.617l0,0
			c-0.085,0.144-0.234,0.219-0.392,0.219l0,0C25.68,61.765,25.603,61.748,25.531,61.707z"/>
	</g>
	<g>
		<path d="M37.436,52.84c-0.009-0.246,0.185-0.459,0.433-0.469l0,0c0.246-0.012,0.459,0.181,0.468,0.429l0,0
			c0.014,0.252-0.18,0.459-0.428,0.473l0,0c-0.009,0-0.018,0-0.022,0l0,0C37.647,53.272,37.449,53.083,37.436,52.84z M39.204,52.746
			c-0.021-0.248,0.158-0.469,0.41-0.49l0,0c0.246-0.019,0.463,0.161,0.486,0.409l0,0c0.021,0.247-0.162,0.468-0.41,0.489l0,0
			c-0.012,0-0.027,0-0.041,0l0,0C39.421,53.154,39.224,52.979,39.204,52.746z M40.964,52.566c-0.035-0.248,0.135-0.473,0.377-0.51
			l0,0c0.248-0.035,0.479,0.136,0.51,0.383l0,0c0.037,0.247-0.135,0.473-0.377,0.509l0,0l0,0l0,0
			c-0.023,0.004-0.047,0.004-0.062,0.004l0,0C41.188,52.952,40.997,52.79,40.964,52.566z M42.706,52.292
			c-0.051-0.244,0.104-0.481,0.348-0.536l0,0c0.246-0.049,0.486,0.104,0.535,0.347l0,0c0.053,0.243-0.104,0.481-0.346,0.535l0,0
			c-0.033,0.004-0.064,0.009-0.096,0.009l0,0C42.94,52.646,42.755,52.503,42.706,52.292z M44.431,51.886
			c-0.078-0.238,0.055-0.49,0.287-0.566l0,0c0.238-0.076,0.49,0.053,0.566,0.288l0,0c0.076,0.238-0.049,0.491-0.287,0.566l0,0
			c-0.045,0.015-0.094,0.022-0.141,0.022l0,0C44.669,52.196,44.493,52.076,44.431,51.886z M46.091,51.279
			c-0.125-0.212-0.053-0.487,0.162-0.617v0.004c0.217-0.125,0.49-0.054,0.617,0.159l0,0c0.125,0.216,0.053,0.49-0.162,0.616l0,0l0,0
			l0,0c-0.072,0.044-0.148,0.063-0.225,0.063l0,0C46.325,51.505,46.177,51.422,46.091,51.279z"/>
		<path d="M33.902,52.8c0.009-0.248,0.221-0.44,0.468-0.429l0,0c0.248,0.01,0.442,0.223,0.433,0.469l0,0
			c-0.014,0.249-0.221,0.441-0.468,0.433l0,0l0,0l0,0C34.083,53.26,33.893,53.052,33.902,52.8z M32.548,53.154
			c-0.248-0.021-0.427-0.242-0.41-0.489l0,0c0.022-0.248,0.243-0.428,0.49-0.409l0,0c0.248,0.021,0.428,0.242,0.405,0.49l0,0
			c-0.018,0.233-0.216,0.408-0.445,0.408l0,0C32.575,53.154,32.562,53.154,32.548,53.154z M30.77,52.948
			c-0.248-0.036-0.419-0.262-0.383-0.509l0,0c0.037-0.247,0.261-0.418,0.509-0.383l0,0c0.248,0.037,0.419,0.262,0.383,0.51l0,0
			c-0.037,0.224-0.225,0.386-0.446,0.386l0,0C30.81,52.952,30.788,52.952,30.77,52.948z M28.997,52.638L28.997,52.638L28.997,52.638
			c-0.244-0.054-0.401-0.292-0.347-0.535l0,0c0.054-0.243,0.292-0.396,0.536-0.347l0,0c0.243,0.055,0.396,0.292,0.347,0.536l0,0
			c-0.045,0.211-0.235,0.354-0.442,0.354l0,0C29.06,52.646,29.028,52.642,28.997,52.638z M27.241,52.174
			c-0.234-0.074-0.365-0.328-0.288-0.566l0,0c0.076-0.235,0.329-0.364,0.567-0.288l0,0c0.234,0.076,0.365,0.328,0.288,0.566l0,0
			c-0.063,0.19-0.238,0.311-0.428,0.311l0,0C27.336,52.196,27.286,52.188,27.241,52.174z M25.531,51.441L25.531,51.441
			L25.531,51.441c-0.216-0.126-0.288-0.4-0.163-0.616l0,0c0.127-0.217,0.401-0.289,0.618-0.163l0,0
			c0.216,0.126,0.287,0.401,0.162,0.617l0,0c-0.085,0.143-0.234,0.226-0.392,0.226l0,0C25.68,51.505,25.603,51.481,25.531,51.441z"
			/>
	</g>
	<g>
		<path fill="#ECECEC" d="M25.783,41.832c0,1.556,4.615,2.817,10.306,2.817c5.08,0,9.292-1.005,10.144-2.326V7.368
			c-0.982,1.499-4.883,1.881-10.574,1.881c-4.818,0-8.863-0.903-9.992-2.125"/>
		<path fill="#ECECEC" d="M46.349,42.103c-0.025,0.073-0.07,0.146-0.115,0.221"/>
		<path fill="#ECECEC" d="M46.233,42.323c-0.852,1.321-5.064,2.326-10.144,2.326c-5.691,0-10.306-1.262-10.306-2.817"/>
	</g>
	<path fill="#ECECEC" d="M35.862,65.581c-4.209,0-7.955-0.663-10.373-1.695l0.013,3.471c0,1.376,4.675,2.492,10.442,2.492
		c5.146,0,9.414-0.891,10.277-2.058v-3.899C43.804,64.922,40.062,65.581,35.862,65.581z"/>
	<circle fill="#1D1D1B" cx="36.178" cy="48.93" r="0.454"/>
	<circle fill="#1D1D1B" cx="36.178" cy="50.956" r="0.454"/>
	<circle fill="#1D1D1B" cx="36.178" cy="52.983" r="0.454"/>
	<circle fill="#1D1D1B" cx="36.178" cy="55.01" r="0.454"/>
	<circle fill="#1D1D1B" cx="36.178" cy="57.037" r="0.454"/>
	<circle fill="#1D1D1B" cx="36.178" cy="59.065" r="0.454"/>
	<circle fill="#1D1D1B" cx="36.178" cy="61.093" r="0.454"/>
	<circle fill="#1D1D1B" cx="36.178" cy="63.12" r="0.454"/>
</g>
</svg>
