<?xml version="1.0" encoding="utf-8"?>
<!-- Generator: Adobe Illustrator 16.0.0, SVG Export Plug-In . SVG Version: 6.00 Build 0)  -->
<!DOCTYPE svg PUBLIC "-//W3C//DTD SVG 1.1//EN" "http://www.w3.org/Graphics/SVG/1.1/DTD/svg11.dtd">
<svg version="1.1" id="Layer_1" xmlns="http://www.w3.org/2000/svg" xmlns:xlink="http://www.w3.org/1999/xlink" x="0px" y="0px"
	 width="64.215px" height="64.215px" viewBox="0 0 64.215 64.215" enable-background="new 0 0 64.215 64.215" xml:space="preserve">
<g>
	<g>
		<g>
			<path fill="#FFFFFF" d="M60.733,52.933c0,2.552-2.088,4.64-4.64,4.64H8.121c-2.552,0-4.64-2.088-4.64-4.64V21.134
				c0-2.552,2.088-4.64,4.64-4.64h47.973c2.552,0,4.64,2.088,4.64,4.64V52.933z"/>
		</g>
		<path d="M56.094,58.408H8.121c-3.019,0-5.475-2.456-5.475-5.476V21.134c0-3.019,2.455-5.476,5.475-5.476h47.973
			c3.019,0,5.476,2.456,5.476,5.476v31.799C61.569,55.952,59.112,58.408,56.094,58.408z M8.121,17.329
			c-2.098,0-3.805,1.706-3.805,3.805v31.799c0,2.099,1.707,3.805,3.805,3.805h47.973c2.098,0,3.805-1.706,3.805-3.805V21.134
			c0-2.099-1.707-3.805-3.805-3.805H8.121z"/>
	</g>
	<g>
		<circle fill="#FFFFFF" cx="41.797" cy="37.944" r="8.221"/>
		<path d="M41.797,46.631c-4.788,0-8.685-3.896-8.685-8.687c0-4.789,3.896-8.685,8.685-8.685c4.79,0,8.686,3.896,8.686,8.685
			C50.482,42.734,46.587,46.631,41.797,46.631z M41.797,30.187c-4.276,0-7.757,3.48-7.757,7.757c0,4.278,3.48,7.76,7.757,7.76
			c4.278,0,7.758-3.481,7.758-7.76C49.555,33.667,46.075,30.187,41.797,30.187z"/>
	</g>
	<path fill="#1D1D1B" d="M43.184,5.807c-1.067,0-1.932,0.864-1.932,1.933c0,0.028,0.008,0.057,0.009,0.085l-22.683,4.699
		c-0.903-0.762-2.068-1.222-3.342-1.222c-2.869,0-5.193,2.324-5.193,5.193h10.386c0-0.793-0.183-1.541-0.5-2.213l21.531-5.689
		c0.316,0.637,0.966,1.077,1.725,1.077c1.066,0,1.933-0.864,1.933-1.93C45.116,6.67,44.25,5.807,43.184,5.807z"/>
	<g>
		<path fill="#ECECEC" d="M11.545,19.619c-2.552,0-4.64,2.088-4.64,4.64v24.203c0,2.552,2.088,4.64,4.64,4.64h40.784
			c2.553,0,4.641-2.088,4.641-4.64V24.259c0-2.552-2.088-4.64-4.641-4.64H11.545z M41.766,47.518
			c-6.014,0-10.892-4.543-10.892-10.151c0-5.605,4.877-10.15,10.892-10.15c6.014,0,10.89,4.544,10.89,10.15
			C52.655,42.975,47.778,47.518,41.766,47.518z"/>
	</g>
	<rect x="35.679" y="32.003" fill="#1D1D1B" width="12.237" height="0.928"/>
	<rect x="33.92" y="35.129" fill="#1D1D1B" width="15.754" height="0.928"/>
	<rect x="33.92" y="38.036" fill="#1D1D1B" width="15.754" height="0.928"/>
	<rect x="34.571" y="41.405" fill="#1D1D1B" width="14.45" height="0.929"/>
	<rect x="36.494" y="43.76" fill="#1D1D1B" width="10.606" height="0.928"/>
</g>
</svg>
