<?xml version="1.0" encoding="utf-8"?>
<!-- Generator: Adobe Illustrator 16.0.0, SVG Export Plug-In . SVG Version: 6.00 Build 0)  -->
<!DOCTYPE svg PUBLIC "-//W3C//DTD SVG 1.1//EN" "http://www.w3.org/Graphics/SVG/1.1/DTD/svg11.dtd">
<svg version="1.1" id="Layer_1" xmlns="http://www.w3.org/2000/svg" xmlns:xlink="http://www.w3.org/1999/xlink" x="0px" y="0px"
	 width="75px" height="75px" viewBox="135.661 175.834 75 75" enable-background="new 135.661 175.834 75 75" xml:space="preserve">
<g>
	<g>
		<path fill="#FFFFFF" d="M205.61,190.345c-0.186-0.898-0.516-1.452-1.061-1.434c-2.812,0.101-13.232,0.652-22.199-3.213
			c-11.883-5.122-19.482-5.032-19.482-5.032c-0.742-0.058-1.497-0.09-2.262-0.09c-17.524,0-18.709,4.103-19.18,14.389
			c-0.688,15.052,11.911,13.786,15.964,14.745c4.053,0.958,3.216,4.912,3.216,4.912l-6.478,25.912c0,0-1.204,3.514,1.206,4.619
			c4.619,2.008,8.336,0.2,8.537,0c0.199-0.201,3.213-2.512,7.129-28.021l1.708-6.919c2.108-6.92,31.84-6.339,31.84-6.339
			c0.998,0,1.807-3.349,1.807-7.481C206.356,193.904,206.062,191.704,205.61,190.345z"/>
		<path fill="#1D1D1B" d="M159.746,247.092c-1.632,0-3.249-0.344-4.809-1.022c-2.575-1.18-2.271-4.348-1.754-5.859l6.454-25.831
			c0.052-0.267,0.504-2.991-2.477-3.696c-0.561-0.133-1.347-0.224-2.257-0.328c-5.278-0.611-15.102-1.747-14.476-15.436
			c0.51-11.136,2.381-15.343,20.179-15.343c0.755,0,1.541,0.031,2.339,0.093c0.755-0.003,8.263,0.138,19.799,5.11
			c4.881,2.104,11.16,3.216,18.158,3.216c1.396,0,2.525-0.043,3.279-0.071l0.33-0.013c0.002,0,0.002,0,0.004,0
			c0.762,0,1.674,0.381,2.061,2.174c0.496,1.526,0.779,3.82,0.779,6.309c0,1.989-0.201,8.481-2.807,8.481
			c-0.025-0.001-0.633-0.013-1.674-0.013c-16.701,0-28.166,2.215-29.209,5.643l-1.695,6.867c-3.479,22.696-6.331,27.488-7.395,28.49
			C164.136,246.303,162.142,247.092,159.746,247.092z M160.607,181.576c-16.715,0-17.724,3.452-18.181,13.435
			c-0.541,11.824,7.432,12.746,12.707,13.356c0.973,0.112,1.812,0.21,2.488,0.369c3.957,0.937,4.323,4.395,3.964,6.093
			l-6.486,25.947c-0.031,0.105-0.901,2.756,0.653,3.467c1.288,0.561,2.638,0.849,3.993,0.849c1.826,0,3.146-0.53,3.484-0.713
			c0.548-0.607,3.286-4.619,6.783-27.397l1.726-7.008c1.886-6.193,20.317-7.111,31.137-7.111c0.689,0,1.193,0.006,1.465,0.01
			c0.383-0.554,1.016-2.838,1.016-6.479c0-2.278-0.26-4.422-0.695-5.733l-0.029-0.113c-0.072-0.351-0.152-0.539-0.201-0.631
			l-0.172,0.007c-0.771,0.029-1.926,0.072-3.355,0.072c-7.371,0-13.748-1.137-18.949-3.379c-11.353-4.894-18.75-4.95-19.059-4.95
			l-0.104-0.003C162.044,181.605,161.31,181.576,160.607,181.576z"/>
	</g>
	<path fill="#1D1D1B" d="M200.669,204.214l-0.934-0.357c3.404-8.894,0.066-14.891,0.033-14.95l0.865-0.5
		C200.784,188.665,204.253,194.852,200.669,204.214z"/>
	<path fill="#ECECEC" d="M199.636,190.76c-0.164-0.799-1.133-0.481-1.619-0.466c-2.502,0.09-10.318-0.372-18.297-3.812
		c-10.571-4.558-17.332-4.477-17.332-4.477c-0.66-0.052-1.331-0.081-2.012-0.081c-15.591,0-16.645,3.651-17.063,12.802
		c-0.612,13.392,10.519,12.724,14.202,13.118c4.948,0.529,4.497,4.549,4.497,4.549l-5.59,25.521c0,0-1.478,4.525,0.667,5.51
		c4.109,1.785,5.819-0.588,6.143-1.355c0.098-0.232,2.908-4.926,6.393-27.62l1.52-6.155c1.875-6.157,27.453-5.648,27.453-5.648
		c0.889,0,1.807-3.016,1.807-6.691C200.403,193.739,200.038,191.97,199.636,190.76z"/>
	<g>
		<path fill="#FFFFFF" d="M144.439,183.831c0,0,1.061,6.038-0.264,20.761c-0.158,1.43-1.747,0.159-2.064,0s-1.908-0.637-2.013-3.655
			c0-3.708-0.873-15.301,1.8-16.258C141.898,184.679,144.217,183.69,144.439,183.831z"/>
		<path fill="#1D1D1B" d="M143.593,206.265c-0.654,0-1.278-0.363-1.811-0.703l-0.134-0.083c-1.624-0.722-2.472-2.233-2.55-4.507
			c-0.001-0.644-0.025-1.467-0.053-2.422c-0.218-7.533-0.179-13.848,2.515-14.812c2.155-0.92,2.646-0.92,2.808-0.92h0.289
			l0.689,0.404l0.077,0.437c0.044,0.252,1.067,6.337-0.253,21.022C145.042,205.854,144.241,206.265,143.593,206.265z
			 M143.584,185.08c-0.397,0.149-0.877,0.341-1.295,0.519c-1.08,0.389-1.48,4.72-1.244,12.893c0.028,0.979,0.053,1.822,0.053,2.445
			c0.075,2.142,0.988,2.549,1.332,2.701l0.129,0.061c0.064,0.031,0.169,0.095,0.298,0.178c0.07,0.044,0.209,0.133,0.354,0.215
			C144.155,193.369,143.808,187.362,143.584,185.08z"/>
	</g>
	<g>
		<path fill="#FFFFFF" d="M167.912,236.493c-0.15,0.735-0.552,1.271-0.897,1.201l0,0c-0.345-0.069-0.502-0.723-0.352-1.456
			l2.208-10.761c0.151-0.735,0.553-1.271,0.897-1.202l0,0c0.346,0.072,0.503,0.724,0.352,1.458L167.912,236.493z"/>
		<path fill="#1D1D1B" d="M169.707,224.27c0.021,0,0.041,0.002,0.062,0.006c0.346,0.072,0.503,0.724,0.352,1.458l-2.208,10.76
			c-0.142,0.691-0.505,1.207-0.835,1.207c-0.021,0-0.042-0.002-0.062-0.006c-0.345-0.069-0.502-0.723-0.352-1.456l2.208-10.761
			C169.013,224.785,169.377,224.27,169.707,224.27 M169.707,223.27L169.707,223.27c-0.852,0-1.564,0.787-1.815,2.006l-2.208,10.762
			c-0.163,0.796-0.069,1.536,0.259,2.031c0.212,0.32,0.522,0.536,0.875,0.606c0.083,0.017,0.171,0.025,0.26,0.025
			c0.853,0,1.565-0.787,1.814-2.006l2.208-10.76c0.28-1.355-0.184-2.441-1.126-2.639C169.88,223.278,169.794,223.27,169.707,223.27
			L169.707,223.27z"/>
	</g>
	<g>
		<path fill="#FFFFFF" d="M171.929,218.017c-0.081,0.479-0.618,0.783-1.198,0.684l0,0c-0.579-0.1-0.982-0.567-0.899-1.045
			l0.242-1.406c0.083-0.479,0.62-0.785,1.199-0.686l0,0c0.579,0.102,0.981,0.57,0.9,1.047L171.929,218.017z"/>
		<path fill="#1D1D1B" d="M171.055,215.545c0.071,0,0.145,0.006,0.218,0.019c0.579,0.102,0.981,0.57,0.9,1.047l-0.244,1.406
			c-0.07,0.417-0.488,0.703-0.979,0.703c-0.071,0-0.145-0.006-0.219-0.02c-0.579-0.1-0.982-0.567-0.899-1.045l0.242-1.406
			C170.146,215.831,170.565,215.545,171.055,215.545 M171.055,214.545L171.055,214.545c-0.985,0-1.812,0.645-1.967,1.532
			l-0.242,1.408c-0.08,0.463,0.03,0.938,0.312,1.337c0.318,0.45,0.829,0.765,1.403,0.864c0.132,0.022,0.262,0.033,0.389,0.033
			c0.988,0,1.814-0.646,1.966-1.535l0.243-1.402c0.173-1.021-0.596-2.009-1.714-2.204
			C171.312,214.556,171.182,214.545,171.055,214.545L171.055,214.545z"/>
	</g>
	<circle fill="#FFFFFF" cx="159.36" cy="194.964" r="9.031"/>
	<g>
		<g>
			<circle fill="#FFFFFF" cx="160.046" cy="195.442" r="5.982"/>
			<path fill="#1D1D1B" d="M160.046,201.924c-3.574,0-6.482-2.907-6.482-6.481s2.908-6.482,6.482-6.482s6.481,2.908,6.481,6.482
				S163.621,201.924,160.046,201.924z M160.046,189.96c-3.023,0-5.482,2.459-5.482,5.482c0,3.022,2.459,5.481,5.482,5.481
				c3.022,0,5.481-2.459,5.481-5.481C165.528,192.419,163.069,189.96,160.046,189.96z"/>
		</g>
		<rect x="155.399" y="190.825" fill="#1D1D1B" width="9.294" height="1"/>
		<rect x="154.064" y="192.878" fill="#1D1D1B" width="11.964" height="1"/>
		<rect x="154.064" y="194.93" fill="#1D1D1B" width="11.964" height="1"/>
		<rect x="154.56" y="196.981" fill="#1D1D1B" width="10.974" height="1"/>
		<rect x="156.018" y="199.034" fill="#1D1D1B" width="8.056" height="1"/>
	</g>
</g>
</svg>
