<?xml version="1.0" encoding="utf-8"?>
<!-- Generator: Adobe Illustrator 16.0.0, SVG Export Plug-In . SVG Version: 6.00 Build 0)  -->
<!DOCTYPE svg PUBLIC "-//W3C//DTD SVG 1.1//EN" "http://www.w3.org/Graphics/SVG/1.1/DTD/svg11.dtd">
<svg version="1.1" id="Layer_1" xmlns="http://www.w3.org/2000/svg" xmlns:xlink="http://www.w3.org/1999/xlink" x="0px" y="0px"
	 width="81.853px" height="81.853px" viewBox="0 0 81.853 81.853" enable-background="new 0 0 81.853 81.853" xml:space="preserve">
<g>
	<g>
		<path fill="#FFFFFF" d="M71.644,17.455H10.208c-1.068,0-1.944,0.875-1.944,1.945v40.862c0,1.069,0.876,1.945,1.944,1.945h61.436
			c1.07,0,1.945-0.876,1.945-1.945V19.4C73.589,18.33,72.714,17.455,71.644,17.455z"/>
		<path fill="#222221" d="M71.644,63.207H10.208c-1.623,0-2.944-1.321-2.944-2.945V19.4c0-1.624,1.321-2.945,2.944-2.945h61.436
			c1.623,0,2.945,1.321,2.945,2.945v40.862C74.589,61.886,73.267,63.207,71.644,63.207z M10.208,18.455
			c-0.521,0-0.944,0.424-0.944,0.945v40.862c0,0.521,0.424,0.945,0.944,0.945h61.436c0.521,0,0.945-0.424,0.945-0.945V19.4
			c0-0.521-0.424-0.945-0.945-0.945H10.208z"/>
	</g>
	<path fill="#FFFFFF" d="M80.984,63.035L80.984,63.035c0,0.509-0.418,0.925-0.926,0.925H1.792c-0.508,0-0.924-0.416-0.924-0.925l0,0
		"/>
	<g>
		<rect x="11.29" y="21.454" fill="#FFFFFF" width="59.274" height="36.89"/>
		<path fill="#222221" d="M71.063,58.844H10.79v-37.89h60.274V58.844z M11.79,57.844h58.274v-35.89H11.79V57.844z"/>
	</g>
	<rect x="13.5" y="22.519" fill="#ECECEC" width="54.853" height="34.619"/>
	<path fill="#222221" d="M46.727,61.433v0.722H35.125v-0.722H0.118v2.29c0,0.924,0.751,1.675,1.674,1.675h78.267
		c0.899,0,1.63-0.713,1.669-1.603h0.007v-2.362H46.727z M80.059,63.897H1.792c-0.094,0-0.174-0.08-0.174-0.175v-0.79h32.138
		c0.21,0.427,0.649,0.722,1.156,0.722h12.027c0.506,0,0.945-0.295,1.156-0.722h32.139v0.79
		C80.234,63.817,80.154,63.897,80.059,63.897z"/>
</g>
</svg>
