<?xml version="1.0" encoding="utf-8"?>
<!-- Generator: Adobe Illustrator 16.0.0, SVG Export Plug-In . SVG Version: 6.00 Build 0)  -->
<!DOCTYPE svg PUBLIC "-//W3C//DTD SVG 1.1//EN" "http://www.w3.org/Graphics/SVG/1.1/DTD/svg11.dtd">
<svg version="1.1" id="Layer_1" xmlns="http://www.w3.org/2000/svg" xmlns:xlink="http://www.w3.org/1999/xlink" x="0px" y="0px"
	 width="67.181px" height="67.183px" viewBox="-0.668 5.753 67.181 67.183" enable-background="new -0.668 5.753 67.181 67.183"
	 xml:space="preserve">
<g>
	<g>
		<path fill="#FFFFFF" d="M56.55,67.244c0,2.529-2.051,4.58-4.58,4.58H14.13c-2.529,0-4.58-2.051-4.58-4.58v-55.84
			c0-2.529,2.051-4.58,4.58-4.58h37.84c2.529,0,4.58,2.051,4.58,4.58V67.244z"/>
		<path d="M57.55,67.244c0,3.082-2.498,5.58-5.58,5.58H14.13c-3.082,0-5.58-2.498-5.58-5.58v-55.84c0-3.082,2.498-5.58,5.58-5.58
			h37.84c3.082,0,5.58,2.498,5.58,5.58V67.244z M55.55,11.405c0-1.977-1.603-3.58-3.58-3.58H14.13c-1.977,0-3.58,1.603-3.58,3.58
			v55.84c0,1.978,1.603,3.58,3.58,3.58h37.84c1.978,0,3.58-1.603,3.58-3.58V11.405z"/>
	</g>
	<path fill="#1A1A1A" d="M54.55,61.824h-42v-49h42V61.824z M13.55,60.824h40v-47h-40V60.824z"/>
	<rect x="14.929" y="15.289" fill="#ECECEC" width="36.799" height="45.1"/>
	<g>
		<g>
			<circle fill="#FFFFFF" cx="33.328" cy="66.1" r="2.423"/>
			<path d="M33.329,69.024c-1.612,0-2.924-1.312-2.924-2.924s1.312-2.922,2.924-2.922c1.611,0,2.922,1.311,2.922,2.922
				S34.941,69.024,33.329,69.024z M33.329,64.178c-1.061,0-1.924,0.861-1.924,1.922s0.863,1.924,1.924,1.924
				c1.06,0,1.922-0.863,1.922-1.924S34.389,64.178,33.329,64.178z"/>
		</g>
	</g>
</g>
</svg>
