<?xml version="1.0" encoding="utf-8"?>
<!-- Generator: Adobe Illustrator 16.0.0, SVG Export Plug-In . SVG Version: 6.00 Build 0)  -->
<!DOCTYPE svg PUBLIC "-//W3C//DTD SVG 1.1//EN" "http://www.w3.org/Graphics/SVG/1.1/DTD/svg11.dtd">
<svg version="1.1" id="Layer_1" xmlns="http://www.w3.org/2000/svg" xmlns:xlink="http://www.w3.org/1999/xlink" x="0px" y="0px"
	 width="75px" height="75px" viewBox="-2.5 -2.5 75 75" enable-background="new -2.5 -2.5 75 75" xml:space="preserve">
<g>
	<g>
		<path fill="#FFFFFF" d="M35.001,57.029c-7.14,0-12.928,2.091-12.928,4.67v5.363c0,2.579,5.788,4.669,12.928,4.669
			s12.927-2.09,12.927-4.669v-5.363C47.928,59.12,42.141,57.029,35.001,57.029z"/>
		<path d="M35.001,72.175c-7.499,0-13.372-2.245-13.372-5.112v-5.363c0-2.868,5.873-5.113,13.372-5.113
			c7.497,0,13.37,2.245,13.37,5.113v5.363C48.371,69.93,42.498,72.175,35.001,72.175z M35.001,57.474
			c-7.468,0-12.484,2.185-12.484,4.226v5.363c0,2.04,5.017,4.225,12.484,4.225c7.466,0,12.482-2.185,12.482-4.225v-5.363
			C47.483,59.658,42.467,57.474,35.001,57.474z"/>
	</g>
	<g>
		<ellipse fill="#FFFFFF" cx="35" cy="60.733" rx="12.927" ry="3.704"/>
		<path d="M35.001,64.882c-6.482,0-13.372-1.453-13.372-4.148c0-2.694,6.89-4.147,13.372-4.147s13.37,1.453,13.37,4.147
			C48.371,63.429,41.483,64.882,35.001,64.882z M35.001,57.474c-7.357,0-12.484,1.719-12.484,3.26c0,1.542,5.127,3.261,12.484,3.261
			c7.356,0,12.482-1.719,12.482-3.261C47.483,59.192,42.357,57.474,35.001,57.474z"/>
	</g>
	<path fill="#ECECEC" d="M35.001,65.56c-6.14,0-11.191-0.947-11.877-2.166c-0.052,0.117-0.085,0.236-0.085,0.355v3.545
		c0,1.703,5.355,3.085,11.962,3.085c6.607,0,11.962-1.381,11.962-3.085v-3.545c0-0.119-0.034-0.237-0.085-0.354
		C46.191,64.613,41.139,65.56,35.001,65.56z"/>
	<ellipse fill="#ECECEC" cx="35" cy="60.871" rx="10.957" ry="2.806"/>
	<g>
		<path fill="#FFFFFF" d="M38.421,25.895c0-1.625-1.058-2.989-2.515-3.482L35.328,4.107c0.755-0.364,1.294-1.293,1.294-2.391
			c0-1.413-0.893-2.561-1.991-2.561c-1.102,0-1.992,1.147-1.992,2.561c0,1.098,0.538,2.025,1.293,2.391l-0.579,18.366
			c-1.357,0.546-2.316,1.869-2.316,3.421c0,0.16-0.59,33.372-0.59,33.372c0,2.375,1.923,1.719,4.299,1.719s4.3,0.657,4.3-1.719
			C39.045,59.267,38.421,26.055,38.421,25.895z"/>
		<path d="M34.631-0.844c1.099,0,1.991,1.147,1.991,2.561c0,1.098-0.539,2.026-1.294,2.391l0.578,18.305
			c1.457,0.493,2.515,1.857,2.515,3.482c0,0.16,0.624,33.372,0.624,33.372c0,1.529-0.798,1.802-2,1.802
			c-0.665,0-1.455-0.083-2.3-0.083c-0.846,0-1.634,0.083-2.298,0.083c-1.203,0-2.001-0.272-2.001-1.802c0,0,0.59-33.212,0.59-33.372
			c0-1.552,0.959-2.875,2.316-3.421l0.579-18.366c-0.755-0.365-1.293-1.293-1.293-2.391C32.639,0.304,33.529-0.844,34.631-0.844
			 M34.631-2.175c-1.833,0-3.324,1.746-3.324,3.892c0,1.221,0.479,2.34,1.271,3.062L32.046,21.65
			c-1.446,0.908-2.341,2.492-2.341,4.244c-0.005,0.414-0.585,33.021-0.591,33.349c0,2.103,1.121,3.157,3.333,3.157
			c0.334,0,0.698-0.02,1.083-0.04c0.395-0.021,0.803-0.043,1.215-0.043c0.411,0,0.82,0.022,1.215,0.043
			c0.386,0.021,0.75,0.04,1.085,0.04c2.212,0,3.332-1.055,3.332-3.134c-0.005-0.354-0.619-32.951-0.624-33.385
			c0-1.811-0.99-3.458-2.541-4.338L36.682,4.78c0.793-0.723,1.272-1.842,1.272-3.063C37.954-0.429,36.464-2.175,34.631-2.175
			L34.631-2.175z"/>
	</g>
	<path fill="#ECECEC" d="M37.256,25.899c0-1.213-0.963-2.509-1.869-2.602c-1.41-0.144-1.336-0.087-1.898,0.046
		c-0.562,0.133-1.722,1.396-1.722,2.556c0,0.12-0.438,24.935-0.438,24.935c0,1.773,1.431,1.284,3.194,1.284
		c1.767,0,3.199,0.489,3.199-1.284C37.722,50.834,37.256,26.02,37.256,25.899z"/>
	<path d="M34.744,33.66c-1.098,0-1.989-0.521-2.108-1.19c-0.008,0.051-0.024,0.099-0.024,0.149c0,0.738,0.956,1.337,2.133,1.337
		c1.178,0,2.135-0.599,2.135-1.337c0-0.051-0.017-0.099-0.025-0.149C36.735,33.139,35.843,33.66,34.744,33.66z"/>
	<g>
		<g>
			<circle fill="#FFFFFF" cx="34.745" cy="29.533" r="1.836"/>
			<path d="M34.745,31.814c-1.258,0-2.28-1.023-2.28-2.281c0-1.257,1.022-2.28,2.28-2.28c1.257,0,2.279,1.023,2.279,2.28
				C37.024,30.791,36.002,31.814,34.745,31.814z M34.745,28.141c-0.769,0-1.393,0.625-1.393,1.393c0,0.769,0.624,1.394,1.393,1.394
				c0.767,0,1.392-0.625,1.392-1.394C36.137,28.766,35.512,28.141,34.745,28.141z"/>
		</g>
	</g>
	<g>
		<circle cx="34.147" cy="0.718" r="0.309"/>
		<circle cx="35.025" cy="0.718" r="0.309"/>
		<circle cx="34.147" cy="1.705" r="0.309"/>
		<circle cx="35.025" cy="1.705" r="0.309"/>
		<circle cx="34.147" cy="2.662" r="0.309"/>
		<circle cx="35.025" cy="2.662" r="0.309"/>
	</g>
	<path d="M34.423,53.653c-2.688,0-4.388-0.489-4.493-0.521l0.295-0.844c0.038,0.01,3.727,1.062,8.795-0.011l0.217,0.865
		C37.429,53.526,35.798,53.653,34.423,53.653z"/>
</g>
</svg>
