<?xml version="1.0" encoding="utf-8"?>
<!-- Generator: Adobe Illustrator 16.0.0, SVG Export Plug-In . SVG Version: 6.00 Build 0)  -->
<!DOCTYPE svg PUBLIC "-//W3C//DTD SVG 1.1//EN" "http://www.w3.org/Graphics/SVG/1.1/DTD/svg11.dtd">
<svg version="1.1" id="Layer_1" xmlns="http://www.w3.org/2000/svg" xmlns:xlink="http://www.w3.org/1999/xlink" x="0px" y="0px"
	 width="75px" height="75px" viewBox="-1.38 -1.38 75 75" enable-background="new -1.38 -1.38 75 75" xml:space="preserve">
<g>
	<g>
		<path fill="#FFFFFF" d="M50.395,67.751c0.354,0.421,0.194,0.765-0.355,0.765H22.201c-0.55,0-0.71-0.344-0.355-0.765l2.711-3.218
			c0.354-0.421,0.645-1.215,0.645-1.765v-6.665c0-0.55,0.45-1,1-1h19.838c0.55,0,1,0.45,1,1v6.665c0,0.55,0.29,1.344,0.645,1.765
			L50.395,67.751z"/>
	</g>
	<path d="M50.039,69.016H22.201c-0.66,0-0.898-0.359-0.971-0.514c-0.071-0.154-0.192-0.568,0.232-1.073l2.711-3.218
		c0.281-0.333,0.527-1.007,0.527-1.442v-6.665c0-0.827,0.673-1.5,1.5-1.5h19.838c0.827,0,1.5,0.673,1.5,1.5v6.665
		c0,0.436,0.246,1.109,0.527,1.442l2.711,3.218c0.425,0.505,0.304,0.919,0.232,1.073C50.938,68.656,50.699,69.016,50.039,69.016z
		 M22.276,68.016h27.688l-2.663-3.16c-0.427-0.508-0.762-1.424-0.762-2.087v-6.665c0-0.275-0.225-0.5-0.5-0.5H26.201
		c-0.275,0-0.5,0.225-0.5,0.5v6.665c0,0.663-0.335,1.579-0.762,2.087L22.276,68.016z"/>
</g>
<g>
	<g>
		<path fill="#FFFFFF" d="M70.608,54.59c0,1.1-0.9,2-2,2H3.632c-1.1,0-2-0.9-2-2V6.225c0-1.1,0.9-2,2-2h64.977c1.1,0,2,0.9,2,2
			V54.59z"/>
	</g>
	<path d="M68.608,57.59H3.632c-1.654,0-3-1.346-3-3V6.225c0-1.654,1.346-3,3-3h64.977c1.654,0,3,1.346,3,3V54.59
		C71.608,56.244,70.263,57.59,68.608,57.59z M3.632,5.225c-0.551,0-1,0.448-1,1V54.59c0,0.552,0.449,1,1,1h64.977
		c0.551,0,1-0.448,1-1V6.225c0-0.552-0.449-1-1-1H3.632z"/>
</g>
<path fill="#1A1A1A" d="M67.62,45.62h-64v-37h64V45.62z M4.62,44.62h62v-35h-62V44.62z"/>
<rect x="6.762" y="10.48" fill="#ECECEC" width="58.717" height="32.649"/>
</svg>
