<?xml version="1.0" encoding="utf-8"?>
<!-- Generator: Adobe Illustrator 16.0.0, SVG Export Plug-In . SVG Version: 6.00 Build 0)  -->
<!DOCTYPE svg PUBLIC "-//W3C//DTD SVG 1.1//EN" "http://www.w3.org/Graphics/SVG/1.1/DTD/svg11.dtd">
<svg version="1.1" id="Layer_1" xmlns="http://www.w3.org/2000/svg" xmlns:xlink="http://www.w3.org/1999/xlink" x="0px" y="0px"
	 width="75px" height="75px" viewBox="-15.115 -12.612 75 75" enable-background="new -15.115 -12.612 75 75" xml:space="preserve">
<g>
	<path fill="#FFFFFF" d="M-2.298-4.858c-9.672,2.25-9.561,3.408-9.561,3.408l7.464,14.534l5.696-3.929L-0.663-5.772
		C-0.663-5.772,7.374-7.107-2.298-4.858z"/>
	<path d="M-4.579,13.82l-7.777-15.221c-0.102-1.058,3.245-2.384,9.945-3.943c0.459-0.107,0.879-0.206,1.261-0.297l-0.071-0.544
		l0.477-0.079c0.247-0.041,2.427-0.4,3.068-0.4c0.53,0,0.626,0.328,0.644,0.469C3.025-5.702,2.93-5.603-0.041-4.88L1.837,9.394
		L-4.579,13.82z M-11.272-1.402L-4.21,12.35l4.977-3.432L-1.02-4.645C-1.376-4.56-1.764-4.469-2.185-4.371
		C-9.081-2.766-10.847-1.739-11.272-1.402z"/>
</g>
<g>
	<path fill="#FFFFFF" d="M33.685-7.286C30.265-8.524-1.37-7.336-1.37-7.336c-7.428,17.401-4.032,61.91-4.032,61.91
		c0,1.686,9.874,3.053,22.055,3.053s22.056-1.367,22.056-3.053C39.526,40.511,37.105-6.048,33.685-7.286z"/>
	<path d="M16.652,58.627c-5.408,0-23.055-0.293-23.055-4.053C-6.539,52.822-9.729,9.697-2.29-7.729l0.249-0.583l0.634-0.024
		c0.137-0.005,13.812-0.514,24.053-0.514c8.657,0,10.642,0.355,11.38,0.623c0.892,0.323,2.979,1.079,4.759,26.993
		c0.943,13.749,1.331,28.831,0.922,35.866C39.708,58.334,22.06,58.627,16.652,58.627z M-4.416,54.355
		c1.176,0.975,8.934,2.271,21.068,2.271c12.133,0,19.89-1.297,21.068-2.271c0.868-15.764-1.865-57.876-4.459-60.729
		c-0.644-0.189-2.896-0.476-10.616-0.476c-8.938,0-20.512,0.389-23.337,0.489C-7.426,10.52-4.615,51.599-4.416,54.355z"/>
</g>
<path fill="#ECECEC" d="M32.303-6.428C29.232-7.615,0.833-6.476,0.833-6.476C-5.834,10.213-2.786,52.9-2.786,52.9
	c0,1.615,8.863,2.928,19.798,2.928s19.8-1.311,19.8-2.928C37.546,39.412,35.372-5.241,32.303-6.428z"/>
<g>
	<g>
		<path fill="#FFFFFF" d="M17.551,43.76c0,1.1-0.9,2-2,2h-0.968c-1.1,0-2-0.9-2-2V6.531c0-1.1,0.9-2,2-2h0.968c1.1,0,2,0.9,2,2
			V43.76z"/>
	</g>
	<path d="M15.551,46.26h-0.968c-1.379,0-2.5-1.121-2.5-2.5V6.531c0-1.378,1.121-2.5,2.5-2.5h0.968c1.379,0,2.5,1.122,2.5,2.5V43.76
		C18.051,45.138,16.929,46.26,15.551,46.26z M14.583,5.031c-0.827,0-1.5,0.673-1.5,1.5V43.76c0,0.826,0.673,1.5,1.5,1.5h0.968
		c0.827,0,1.5-0.674,1.5-1.5V6.531c0-0.827-0.673-1.5-1.5-1.5H14.583z"/>
</g>
<g>
	<path fill="#FFFFFF" d="M46.44-1.214c0,0-5.199-3.78-11.17-3.512c-0.353-1.454-0.68-2.265-0.953-2.242
		C33.37-6.89,33.43,3.115,34.451,15.378s2.616,22.138,3.562,22.06c0.947-0.078,0.887-10.082-0.134-22.345
		c-0.237-2.841-0.505-5.551-0.787-8.04c0.79-1.935,2.192-3.24,4.696-1.503c4.578,4.425,9.67,10.356,6.834,25.063
		c-1.457,6.01,4.027,6.801,5.701,2.869c1.674-3.93,1.312-2.484,1.312-2.484S61.875,10.392,46.44-1.214z"/>
	<path d="M38.002,37.939c-2.019,0-3.609-17.237-4.049-22.521c-0.495-5.944-0.781-11.548-0.807-15.78
		c-0.042-7.008,0.607-7.062,1.13-7.105c0.001,0,0.002,0,0.003,0c0.597,0,0.95,0.574,1.379,2.229c5.9-0.111,10.87,3.469,11.076,3.619
		c15.541,11.686,9.242,32.724,9.242,32.724c-0.063,0.088-0.316,0.516-1.193,2.574c-0.704,1.654-2.147,2.723-3.677,2.723
		c-0.955,0-1.806-0.412-2.396-1.162c-0.602-0.764-1.189-2.209-0.575-4.744c2.717-14.089-1.817-19.873-6.695-24.587
		c-0.629-0.429-1.249-0.672-1.779-0.672c-0.829,0-1.521,0.635-2.058,1.888c0.285,2.534,0.546,5.2,0.773,7.926
		c0.495,5.943,0.781,11.548,0.807,15.78c0.042,7.006-0.607,7.061-1.129,7.104L38.002,37.939z M34.394-5.971
		c-0.386,2.203-0.402,9.807,0.555,21.308c0.96,11.538,2.238,19.046,2.982,21.126c0.39-2.174,0.409-9.789-0.551-21.329
		c-0.231-2.762-0.495-5.462-0.786-8.025l-0.014-0.127l0.048-0.118c1.116-2.732,3.063-3.378,5.444-1.725
		c4.914,4.741,9.855,10.967,7.04,25.568c-0.411,1.699-0.273,3.08,0.384,3.916c0.396,0.502,0.967,0.779,1.609,0.779
		c1.127,0,2.21-0.83,2.757-2.115c0.847-1.988,1.185-2.68,1.424-2.92c0.797-3.158,4.522-20.902-9.147-31.182
		c-0.042-0.03-5.119-3.669-10.847-3.412l-0.411,0.019l-0.098-0.4C34.629-5.251,34.497-5.683,34.394-5.971z"/>
</g>
<g>
	<path fill="#1D1D1B" d="M15.798,14.819c0.55-0.002,1,0.183,1,0.411s-0.45,0.416-1,0.417l-1.462,0.005c-0.55,0.002-1-0.183-1-0.411
		s0.45-0.416,1-0.417L15.798,14.819z"/>
</g>
<g>
	<path fill="#1D1D1B" d="M15.798,25.643c0.55-0.001,1,0.184,1,0.411s-0.45,0.416-1,0.417l-1.462,0.006c-0.55,0.001-1-0.184-1-0.411
		s0.45-0.416,1-0.417L15.798,25.643z"/>
</g>
<g>
	<path fill="#1D1D1B" d="M15.798,36.469c0.55-0.001,1,0.184,1,0.411s-0.45,0.416-1,0.417l-1.462,0.006c-0.55,0.001-1-0.184-1-0.411
		s0.45-0.416,1-0.417L15.798,36.469z"/>
</g>
<g>
	<circle fill="#FFFFFF" cx="32.194" cy="50.371" r="2.108"/>
	<path fill="#1D1D1B" d="M32.192,52.98c-1.438,0-2.606-1.17-2.606-2.609c0-1.436,1.169-2.605,2.606-2.605
		c1.438,0,2.609,1.17,2.609,2.605C34.802,51.81,33.631,52.98,32.192,52.98z M32.192,48.765c-0.886,0-1.606,0.721-1.606,1.605
		c0,0.889,0.721,1.609,1.606,1.609c0.888,0,1.609-0.721,1.609-1.609C33.802,49.486,33.08,48.765,32.192,48.765z"/>
</g>
</svg>
