<?xml version="1.0" encoding="utf-8"?>
<!-- Generator: Adobe Illustrator 16.0.0, SVG Export Plug-In . SVG Version: 6.00 Build 0)  -->
<!DOCTYPE svg PUBLIC "-//W3C//DTD SVG 1.1//EN" "http://www.w3.org/Graphics/SVG/1.1/DTD/svg11.dtd">
<svg version="1.1" id="Ebene_1" xmlns="http://www.w3.org/2000/svg" xmlns:xlink="http://www.w3.org/1999/xlink" x="0px" y="0px"
	 width="65px" height="65px" viewBox="0 0 65 65" enable-background="new 0 0 65 65" xml:space="preserve">
<g>
	<g>
		<path fill="#FFFFFF" d="M47.646,59.527c0,2.47-2.003,4.473-4.473,4.473H22.118c-2.47,0-4.473-2.003-4.473-4.473V5.473
			c0-2.47,2.003-4.473,4.473-4.473h21.055c2.47,0,4.473,2.002,4.473,4.473V59.527z"/>
		<path fill="#010202" d="M48.646,59.527c0,3.022-2.45,5.473-5.473,5.473H22.118c-3.022,0-5.473-2.45-5.473-5.473V5.473
			C16.646,2.45,19.096,0,22.118,0h21.055c3.022,0,5.473,2.45,5.473,5.473V59.527z M46.646,5.473C46.646,3.555,45.091,2,43.173,2
			H22.118c-1.918,0-3.473,1.555-3.473,3.473v54.055c0,1.918,1.555,3.473,3.473,3.473h21.055c1.918,0,3.473-1.555,3.473-3.473V5.473z
			"/>
	</g>
	<path fill="#1B1B1B" d="M45.646,55h-26V8h26V55z M20.646,54h24V9h-24V54z"/>
	<rect x="20.951" y="9.343" fill="#ECECEC" width="23.374" height="42.528"/>
	<g>
		<g>
			<circle fill="#FFFFFF" cx="32.639" cy="58.91" r="2.423"/>
			<path fill="#010202" d="M32.64,61.833c-1.612,0-2.924-1.312-2.924-2.923s1.312-2.922,2.924-2.922
				c1.611,0,2.922,1.311,2.922,2.922S34.251,61.833,32.64,61.833z M32.64,56.988c-1.061,0-1.924,0.862-1.924,1.922
				c0,1.061,0.863,1.923,1.924,1.923c1.059,0,1.922-0.862,1.922-1.923C34.562,57.851,33.698,56.988,32.64,56.988z"/>
		</g>
	</g>
</g>
</svg>
