<?xml version="1.0" encoding="utf-8"?>
<!-- Generator: Adobe Illustrator 16.0.0, SVG Export Plug-In . SVG Version: 6.00 Build 0)  -->
<!DOCTYPE svg PUBLIC "-//W3C//DTD SVG 1.1//EN" "http://www.w3.org/Graphics/SVG/1.1/DTD/svg11.dtd">
<svg version="1.1" id="Layer_1" xmlns="http://www.w3.org/2000/svg" xmlns:xlink="http://www.w3.org/1999/xlink" x="0px" y="0px"
	 width="75px" height="75px" viewBox="-1.38 -1.38 75 75" enable-background="new -1.38 -1.38 75 75" xml:space="preserve">
<g>
	<g>
		<path fill="#FFFFFF" d="M62.181,19.81h-7.159c0,0-1.249-3.116-1.919-5.18c-0.669-2.063-2.068-3.997-4.611-3.997H34.966
			c-2.543,0-3.159,0.213-4.61,3.94c-1.45,3.728-2.038,5.236-2.038,5.236H10.618c-2.741,0-4.971,2.229-4.971,4.971v32.081
			c0,2.742,2.229,4.973,4.971,4.973h51.562c2.74,0,4.971-2.23,4.971-4.973V24.78C67.151,22.039,64.921,19.81,62.181,19.81z"/>
	</g>
	<path fill="#ECECEC" d="M59.893,21.604h-6.421c0,0-1.119-2.796-1.72-4.647c-0.601-1.85-1.856-3.585-4.138-3.585H35.482
		c-2.28,0-2.832,0.191-4.134,3.535c-1.303,3.343-1.829,4.697-1.829,4.697H13.645c-2.459,0-4.459,1.999-4.459,4.458v28.775
		c0,2.459,2,4.459,4.459,4.459h46.248c2.459,0,4.458-2,4.458-4.459V26.062C64.351,23.604,62.352,21.604,59.893,21.604z"/>
	<g>
		<circle fill="#FFFFFF" cx="41.46" cy="40.625" r="15.764"/>
		<path d="M41.46,56.889c-8.968,0-16.264-7.296-16.264-16.264c0-8.967,7.296-16.263,16.264-16.263s16.264,7.296,16.264,16.263
			C57.724,49.593,50.428,56.889,41.46,56.889z M41.46,25.362c-8.416,0-15.264,6.847-15.264,15.263s6.848,15.264,15.264,15.264
			s15.264-6.848,15.264-15.264S49.876,25.362,41.46,25.362z"/>
	</g>
	<g>
		<circle fill="#FFFFFF" cx="41.459" cy="40.625" r="12.629"/>
		<path d="M41.46,53.756c-7.239,0-13.13-5.891-13.13-13.131c0-7.239,5.891-13.129,13.13-13.129c7.24,0,13.129,5.89,13.129,13.129
			C54.589,47.865,48.7,53.756,41.46,53.756z M41.46,28.496c-6.688,0-12.13,5.44-12.13,12.129c0,6.689,5.441,12.131,12.13,12.131
			c6.688,0,12.129-5.441,12.129-12.131C53.589,33.937,48.147,28.496,41.46,28.496z"/>
	</g>
	<path d="M18.409,55.317c-0.229,0-0.436-0.158-0.488-0.392c-0.042-0.192-1.05-4.837-1.05-15.27c0-10.47,1.027-13.285,1.071-13.4
		c0.099-0.258,0.386-0.389,0.646-0.289c0.257,0.099,0.387,0.386,0.29,0.644c-0.018,0.048-1.007,2.887-1.007,13.046
		c0,10.302,1.017,15.006,1.026,15.053c0.06,0.27-0.11,0.537-0.38,0.596C18.481,55.313,18.444,55.317,18.409,55.317z"/>
	<path d="M44.3,18.626h-5.68c-1.379,0-2.5-1.024-2.5-2.282c0-1.259,1.121-2.282,2.5-2.282h5.68c1.378,0,2.5,1.023,2.5,2.282
		C46.8,17.602,45.678,18.626,44.3,18.626z M38.62,15.062c-0.828,0-1.5,0.575-1.5,1.282s0.672,1.282,1.5,1.282h5.68
		c0.826,0,1.5-0.575,1.5-1.282s-0.674-1.282-1.5-1.282H38.62z"/>
	<path d="M61.901,18.696h-6.479c-0.396-1.011-1.175-3.031-1.648-4.488c-0.98-3.023-2.956-4.688-5.562-4.688H34.687
		c-3.004,0-3.97,0.539-5.542,4.577l-1.79,4.6H10.339c-3.292,0-5.971,2.678-5.971,5.971v32.081c0,3.293,2.679,5.973,5.971,5.973
		h51.562c3.292,0,5.971-2.68,5.971-5.973V24.667C67.872,21.374,65.193,18.696,61.901,18.696z M31.008,14.822
		c1.286-3.303,1.559-3.303,3.679-3.303h13.525c2.139,0,3.172,1.798,3.66,3.306c0.543,1.67,1.438,3.969,1.792,4.865H29.113
		L31.008,14.822z M65.872,56.748c0,2.19-1.781,3.973-3.971,3.973H10.339c-2.189,0-3.971-1.782-3.971-3.973V24.667
		c0-2.189,1.781-3.971,3.971-3.971h18.383l0.002-0.006h25.34l0.002,0.006h7.836c2.189,0,3.971,1.781,3.971,3.971V56.748z"/>
</g>
</svg>
