<?xml version="1.0" encoding="utf-8"?>
<!-- Generator: Adobe Illustrator 16.0.4, SVG Export Plug-In . SVG Version: 6.00 Build 0)  -->
<!DOCTYPE svg PUBLIC "-//W3C//DTD SVG 1.1//EN" "http://www.w3.org/Graphics/SVG/1.1/DTD/svg11.dtd">
<svg version="1.1" id="Layer_1" xmlns="http://www.w3.org/2000/svg" xmlns:xlink="http://www.w3.org/1999/xlink" x="0px" y="0px"
	 width="81.833px" height="81.833px" viewBox="0 -6.833 81.833 81.833" enable-background="new 0 -6.833 81.833 81.833"
	 xml:space="preserve">
<g>
	<g>
		<g>
			<path d="M50.474,75.274L25.718,50.519h12.688l0.002-35.931h24.134v35.931H75.23L50.474,75.274z M31.96,52.519l18.514,19.514
				l19.515-19.514h-9.446V16.588H40.408l-0.002,35.931H31.96z"/>
		</g>
	</g>
</g>
<g>
	<g>
		<g>
			<path d="M33.954,35H17.923V9.447H9.7L25.938-6.791L42.177,9.447h-8.223V35z M18.923,34h14.031V8.447h6.809L25.938-5.377
				L12.114,8.447h6.809V34z"/>
		</g>
	</g>
</g>
<polygon fill="#ECECEC" points="35.609,53.561 43.052,53.561 43.054,19.006 59.531,19.006 59.531,53.561 66.974,53.561 
	51.291,69.242 "/>
<g>
	<g>
		<g>
			<polygon fill="#ECECEC" points="18.89,34.083 18.923,8.447 12.114,8.447 24.812,-4.25 36.875,8.447 30.953,8.447 30.92,34.083 
							"/>
		</g>
	</g>
</g>
</svg>
