<?xml version="1.0" encoding="utf-8"?>
<!-- Generator: Adobe Illustrator 16.0.0, SVG Export Plug-In . SVG Version: 6.00 Build 0)  -->
<!DOCTYPE svg PUBLIC "-//W3C//DTD SVG 1.1//EN" "http://www.w3.org/Graphics/SVG/1.1/DTD/svg11.dtd">
<svg version="1.1" id="Layer_1" xmlns="http://www.w3.org/2000/svg" xmlns:xlink="http://www.w3.org/1999/xlink" x="0px" y="0px"
	 width="75px" height="75px" viewBox="-1.38 -1.38 75 75" enable-background="new -1.38 -1.38 75 75" xml:space="preserve">
<g>
	<g>
		<path fill="#FFFFFF" d="M64.569,70.113c0,1.1-0.9,2-2,2H9.672c-1.1,0-2-0.9-2-2V2.127c0-1.1,0.9-2,2-2h52.897c1.1,0,2,0.9,2,2
			V70.113z"/>
	</g>
	<rect x="9.994" y="2.215" fill="#ECECEC" width="52.509" height="61.48"/>
	<circle fill="#FFFFFF" cx="36.152" cy="39.106" r="18.187"/>
	<path d="M62.626-0.844H9.614C8.008-0.844,6.7,0.463,6.7,2.07v68.1c0,1.607,1.308,2.914,2.914,2.914h53.012
		c1.607,0,2.914-1.307,2.914-2.914V2.07C65.54,0.463,64.233-0.844,62.626-0.844z M63.597,12.377H8.668v0.971h54.929v52.128H8.668
		v0.971h54.929v3.723c0,0.535-0.436,0.973-0.971,0.973H9.614c-0.535,0-0.971-0.438-0.971-0.973V2.07
		c0-0.536,0.436-0.972,0.971-0.972h53.012c0.535,0,0.971,0.436,0.971,0.972V12.377z"/>
	<path fill="#222221" d="M28.568,8.258H11.49V5.091h17.078V8.258z M12.461,7.287h15.135V6.062H12.461V7.287z"/>
	<rect x="12.316" y="5.684" fill="#ECECEC" width="15.434" height="1.965"/>
	<path fill="#FFFFFF" d="M36.121,53.686c-7.998,0-14.482-6.483-14.482-14.483c0-7.997,6.484-14.48,14.482-14.48
		c5.239,0,9.813,2.791,12.356,6.958c-0.938,1.674-1.549,4.422-1.541,7.535c0.008,3.088,0.623,5.813,1.559,7.485
		C45.954,50.883,41.372,53.686,36.121,53.686z M36.12,57.45c10.045,0,18.188-8.143,18.188-18.187S46.165,21.077,36.12,21.077
		c-10.044,0-18.187,8.143-18.187,18.187"/>
	<path fill="#1D1D1B" d="M56.872,9.475c-1.475,0-2.674-1.199-2.674-2.673c0-1.475,1.199-2.674,2.674-2.674s2.674,1.2,2.674,2.674
		C59.546,8.275,58.347,9.475,56.872,9.475z M56.872,4.904c-1.045,0-1.896,0.851-1.896,1.897c0,1.045,0.852,1.897,1.896,1.897
		s1.896-0.852,1.896-1.897C58.769,5.755,57.917,4.904,56.872,4.904z"/>
	<path fill="#ECECEC" d="M36.364,51.711c-6.699,0-12.132-5.432-12.132-12.134c0-6.7,5.433-12.131,12.132-12.131
		c4.391,0,8.223,2.337,10.354,5.829c-0.787,1.403-1.297,3.705-1.291,6.312c0.008,2.589,0.521,4.871,1.305,6.273
		C44.603,49.363,40.763,51.711,36.364,51.711z"/>
	<path d="M36.319,58.007c-10.295,0-18.672-8.376-18.672-18.673c0-10.296,8.377-18.672,18.672-18.672s18.672,8.376,18.672,18.672
		C54.991,49.631,46.614,58.007,36.319,58.007z M36.319,21.633c-9.761,0-17.701,7.941-17.701,17.701c0,9.761,7.94,17.7,17.701,17.7
		c9.76,0,17.701-7.939,17.701-17.7C54.021,29.574,46.079,21.633,36.319,21.633z M36.32,54.241c-8.253,0-14.968-6.715-14.968-14.969
		c0-8.252,6.715-14.967,14.968-14.967c5.249,0,10.022,2.689,12.771,7.19l0.148,0.243l-0.139,0.248
		c-0.934,1.666-1.486,4.393-1.479,7.295c0.008,2.878,0.566,5.589,1.494,7.251l0.139,0.247l-0.146,0.242
		C46.364,51.543,41.583,54.241,36.32,54.241z M36.32,25.277c-7.718,0-13.997,6.278-13.997,13.995
		c0,7.719,6.279,13.998,13.997,13.998c4.829,0,9.226-2.432,11.812-6.518c-0.936-1.829-1.473-4.528-1.48-7.468
		c-0.008-2.921,0.535-5.7,1.465-7.518C45.524,27.698,41.136,25.277,36.32,25.277z"/>
</g>
</svg>
