<?xml version="1.0" encoding="utf-8"?>
<!-- Generator: Adobe Illustrator 16.0.0, SVG Export Plug-In . SVG Version: 6.00 Build 0)  -->
<!DOCTYPE svg PUBLIC "-//W3C//DTD SVG 1.1//EN" "http://www.w3.org/Graphics/SVG/1.1/DTD/svg11.dtd">
<svg version="1.1" id="Layer_1" xmlns="http://www.w3.org/2000/svg" xmlns:xlink="http://www.w3.org/1999/xlink" x="0px" y="0px"
	 width="75px" height="75px" viewBox="2.5 2.5 75 75" enable-background="new 2.5 2.5 75 75" xml:space="preserve">
<g>
	<g>
		<path fill="#FFFFFF" d="M72.856,71.554c0,1.1-0.9,2-2,2H9.144c-1.1,0-2-0.9-2-2V8.446c0-1.1,0.9-2,2-2h61.713c1.1,0,2,0.9,2,2
			V71.554z"/>
	</g>
	<g>
		<path fill="#ECECEC" d="M71.188,60.284c0,1.1-0.9,2-2,2H11.772c-1.1,0-2-0.9-2-2V11.209c0-1.1,0.9-2,2-2h57.416c1.1,0,2,0.9,2,2
			V60.284z"/>
	</g>
	<path d="M70.732,5.385H9.267c-1.756,0-3.185,1.429-3.185,3.185v62.86c0,1.757,1.429,3.186,3.185,3.186h61.466
		c1.757,0,3.186-1.429,3.186-3.186V8.57C73.918,6.813,72.489,5.385,70.732,5.385z M8.205,21.68h63.589v42.164H8.205V21.68z
		 M9.267,7.508h61.466c0.587,0,1.062,0.478,1.062,1.062v12.048H8.205V8.569C8.205,7.985,8.682,7.508,9.267,7.508z M70.732,72.491
		H9.267c-0.585,0-1.062-0.477-1.062-1.062v-6.523h63.589v6.523C71.794,72.015,71.319,72.491,70.732,72.491z"/>
	<g>
		<rect x="17.166" y="29.559" fill="#FFFFFF" width="45.668" height="30.045"/>
		<path d="M63.364,60.134H16.635V29.027h46.729V60.134z M17.697,59.072h44.605V30.089H17.697V59.072z"/>
	</g>
	<path fill="#1D1D1B" d="M18.935,16.699c-1.286,0-2.333-1.048-2.333-2.334c0-1.287,1.047-2.334,2.333-2.334
		c1.287,0,2.334,1.047,2.334,2.334C21.269,15.651,20.222,16.699,18.935,16.699z M18.935,13.093c-0.7,0-1.271,0.57-1.271,1.272
		s0.57,1.271,1.271,1.271c0.702,0,1.272-0.569,1.272-1.271S19.637,13.093,18.935,13.093z"/>
	<path fill="#1D1D1B" d="M24.992,16.699c-1.286,0-2.334-1.048-2.334-2.334c0-1.287,1.048-2.334,2.334-2.334
		c1.287,0,2.334,1.047,2.334,2.334C27.326,15.651,26.279,16.699,24.992,16.699z M24.992,13.093c-0.702,0-1.272,0.57-1.272,1.272
		s0.57,1.271,1.272,1.271s1.272-0.569,1.272-1.271S25.694,13.093,24.992,13.093z"/>
	<path fill="#1D1D1B" d="M54.841,16.699c-1.287,0-2.332-1.048-2.332-2.334c0-1.287,1.045-2.334,2.332-2.334
		c1.286,0,2.333,1.047,2.333,2.334C57.174,15.651,56.127,16.699,54.841,16.699z M54.841,13.093c-0.7,0-1.271,0.57-1.271,1.272
		s0.57,1.272,1.271,1.272c0.701,0,1.271-0.57,1.271-1.272S55.542,13.093,54.841,13.093z"/>
	<path fill="#1D1D1B" d="M60.898,16.699c-1.287,0-2.335-1.048-2.335-2.334c0-1.287,1.048-2.334,2.335-2.334
		c1.286,0,2.333,1.047,2.333,2.334C63.231,15.651,62.185,16.699,60.898,16.699z M60.898,13.093c-0.703,0-1.273,0.57-1.273,1.272
		s0.57,1.272,1.273,1.272c0.701,0,1.271-0.57,1.271-1.272S61.6,13.093,60.898,13.093z"/>
	<g>
		<path fill="#222221" d="M47.077,16.461H32.923V12.27h14.154V16.461z M33.984,15.398h12.031v-2.067H33.984V15.398z"/>
		<rect x="33.73" y="12.954" fill="#ECECEC" width="12.546" height="2.799"/>
	</g>
	<g>
		<path fill="#ECECEC" d="M59.839,54.429c0,1.1-0.9,2-2,2H21.677c-1.1,0-2-0.9-2-2V35.005c0-1.1,0.9-2,2-2h36.162c1.1,0,2,0.9,2,2
			V54.429z"/>
	</g>
</g>
</svg>
