<?xml version="1.0" encoding="utf-8"?>
<!-- Generator: Adobe Illustrator 16.0.0, SVG Export Plug-In . SVG Version: 6.00 Build 0)  -->
<!DOCTYPE svg PUBLIC "-//W3C//DTD SVG 1.1//EN" "http://www.w3.org/Graphics/SVG/1.1/DTD/svg11.dtd">
<svg version="1.1" id="Layer_1" xmlns="http://www.w3.org/2000/svg" xmlns:xlink="http://www.w3.org/1999/xlink" x="0px" y="0px"
	 width="75px" height="75px" viewBox="2.5 2.5 75 75" enable-background="new 2.5 2.5 75 75" xml:space="preserve">
<g>
	<g>
		<g>
			<path fill="#FFFFFF" d="M56.667,73.521c0,0.55-0.45,1-1,1H24.333c-0.55,0-1-0.45-1-1V5.914c0-0.55,0.45-1,1-1h31.334
				c0.55,0,1,0.45,1,1V73.521z"/>
		</g>
		<path fill="#222221" d="M55.706,75.482H24.294c-1.06,0-1.923-0.861-1.923-1.924V5.876c0-1.061,0.863-1.923,1.923-1.923h31.412
			c1.061,0,1.923,0.862,1.923,1.923v67.683C57.629,74.621,56.767,75.482,55.706,75.482z M55.706,73.559v0.963V73.559L55.706,73.559
			L55.706,73.559z M24.294,5.876v67.683h31.41l0.002-67.683H24.294z"/>
	</g>
	<rect x="23.333" y="51.383" fill="#222221" width="33.334" height="0.963"/>
	<g>
		<g>
			<path fill="#1D1D1B" d="M29.516,76.047c0.419,0,0.759-0.34,0.759-0.758h-1.519C28.756,75.707,29.096,76.047,29.516,76.047z"/>
		</g>
		<g>
			<path fill="#1D1D1B" d="M50.486,76.047c0.419,0,0.759-0.34,0.759-0.758h-1.52C49.726,75.707,50.065,76.047,50.486,76.047z"/>
		</g>
	</g>
	<rect x="25.021" y="6.981" fill="#ECECEC" width="30.058" height="42.88"/>
	<rect x="25.021" y="53.047" fill="#ECECEC" width="30.058" height="19.521"/>
	<g>
		<path fill="#1D1D1B" d="M28.756,46.127c0,0.55-0.3,1-0.666,1s-0.666-0.45-0.666-1v-13.18c0-0.55,0.3-1,0.666-1s0.666,0.45,0.666,1
			V46.127z"/>
	</g>
	<g>
		<path fill="#FFFFFF" d="M33.993,11.611v23.036c0,0.4,0.328,0.729,0.729,0.729h15.322c0.4,0,0.729-0.328,0.729-0.729V11.611
			c0-0.401-0.328-0.729-0.729-0.729H34.723C34.321,10.882,33.993,11.21,33.993,11.611z"/>
		<path fill="#222221" d="M50.045,35.857H34.723c-0.668,0-1.211-0.543-1.211-1.209V11.611c0-0.667,0.543-1.21,1.211-1.21h15.322
			c0.667,0,1.209,0.542,1.209,1.21v23.036C51.254,35.314,50.712,35.857,50.045,35.857z M34.723,11.363
			c-0.135,0-0.249,0.114-0.249,0.249v23.036c0,0.135,0.114,0.248,0.249,0.248l15.322,0c0.133,0,0.248-0.113,0.248-0.248V11.611
			c0-0.135-0.115-0.249-0.248-0.249H34.723z"/>
	</g>
	<g>
		<path fill="#1D1D1B" d="M28.756,69.334c0,0.55-0.3,1-0.666,1s-0.666-0.45-0.666-1V56.152c0-0.55,0.3-1,0.666-1s0.666,0.45,0.666,1
			V69.334z"/>
	</g>
</g>
</svg>
