<?xml version="1.0" encoding="utf-8"?>
<!-- Generator: Adobe Illustrator 16.0.0, SVG Export Plug-In . SVG Version: 6.00 Build 0)  -->
<!DOCTYPE svg PUBLIC "-//W3C//DTD SVG 1.1//EN" "http://www.w3.org/Graphics/SVG/1.1/DTD/svg11.dtd">
<svg version="1.1" id="Layer_1" xmlns="http://www.w3.org/2000/svg" xmlns:xlink="http://www.w3.org/1999/xlink" x="0px" y="0px"
	 width="75px" height="75px" viewBox="-1.38 -1.38 75 75" enable-background="new -1.38 -1.38 75 75" xml:space="preserve">
<path fill="#FFFFFF" d="M47.649,14.919c0,0-2.742-1.389-2.805-5.075c0,0,0.037-5.994-1.062-6.744
	c-1.063-0.727-3.943-1.213-8.091-1.187v0c-0.07-0.001-0.132,0.001-0.2,0c-0.07,0-0.133-0.001-0.202,0v0
	c-4.148-0.026-7.027,0.46-8.091,1.187c-1.099,0.75-1.062,6.744-1.062,6.744c-0.062,3.686-2.806,5.075-2.806,5.075l12.16-0.262
	L47.649,14.919z"/>
<path fill="#FFFFFF" d="M23.332,57.32c0,0,2.743,1.389,2.806,5.074c0,0-0.036,5.994,1.062,6.744
	c1.063,0.727,3.943,1.213,8.091,1.186v0.001c0.069,0.001,0.132-0.001,0.201-0.001s0.131,0.002,0.201,0.001v-0.001
	c4.148,0.027,7.027-0.459,8.091-1.186c1.1-0.75,1.062-6.744,1.062-6.744c0.062-3.686,2.804-5.074,2.804-5.074l-12.158,0.262
	L23.332,57.32z"/>
<g>
	<g>
		<path fill="#FFFFFF" d="M51.717,46.422c0,4.4-3.6,8-8,8H27.55c-4.4,0-8-3.6-8-8V25.668c0-4.4,3.6-8,8-8h16.167c4.4,0,8,3.6,8,8
			V46.422z"/>
	</g>
	<path d="M43.717,17.168H27.55c-4.687,0-8.5,3.813-8.5,8.5v20.754c0,4.687,3.813,8.5,8.5,8.5h16.167c4.687,0,8.5-3.813,8.5-8.5
		V25.668C52.217,20.981,48.403,17.168,43.717,17.168z M51.217,46.422c0,4.136-3.364,7.5-7.5,7.5H27.55c-4.136,0-7.5-3.364-7.5-7.5
		V25.668c0-4.136,3.364-7.5,7.5-7.5h16.167c4.136,0,7.5,3.364,7.5,7.5V46.422z"/>
</g>
<path d="M54.988,23.979c-0.009,0-0.017,0.004-0.025,0.004V23.21c0-4.358-3.115-8.001-7.235-8.824
	c-0.537-0.333-2.334-1.663-2.383-4.539c0.009-1.468-0.057-6.325-1.279-7.16c-1.186-0.81-4.121-1.274-8.054-1.274l-0.223,0l0.001,0.5
	l-0.14-0.5l-0.135,0.001v0.5l-0.111-0.5l-0.111,0l-0.322-0.001c-3.933,0-6.868,0.464-8.054,1.274
	c-1.223,0.834-1.288,5.691-1.279,7.148c-0.057,3.321-2.433,4.585-2.531,4.637l-0.079,0.04c-3.863,1.012-6.725,4.522-6.725,8.697
	v25.67c0,3.898,2.497,7.217,5.971,8.465l0.833,0.421c0.024,0.013,2.475,1.292,2.531,4.626c-0.009,1.468,0.058,6.325,1.279,7.159
	c1.186,0.811,4.119,1.275,8.048,1.275l0.235-0.001l-0.001-0.5l0.133,0.501l0.136-0.002v-0.5l0.11,0.501l0.111-0.001l0.328,0.002
	c3.929,0,6.862-0.465,8.047-1.275c1.225-0.834,1.29-5.691,1.281-7.148c0.056-3.32,2.431-4.585,2.529-4.637l0.382-0.193
	c3.853-1.018,6.706-4.524,6.706-8.692V31.334c0.009,0,0.017,0.004,0.025,0.004c0.524,0,0.949-0.354,0.949-0.79v-5.781
	C55.938,24.333,55.513,23.979,54.988,23.979z M26.638,9.841c-0.018-2.767,0.317-5.969,0.844-6.328
	c0.778-0.532,3.154-1.101,7.489-1.101l0.617,0l-0.005-0.5l0.112,0.5l0.316-0.001c4.334,0,6.711,0.568,7.489,1.101
	c0.477,0.325,0.862,3.222,0.844,6.339c0.036,2.092,0.865,3.49,1.654,4.359c-0.012,0-0.023-0.002-0.036-0.002h-8.011l-2.471-0.053
	l-2.467,0.053h-7.712c-0.113,0-0.223,0.013-0.334,0.017C25.762,13.358,26.602,11.952,26.638,9.841z M44.346,62.397
	c0.018,2.767-0.318,5.969-0.845,6.327c-0.778,0.533-3.153,1.102-7.483,1.102l-0.232-0.001l-0.135,0.001v0.5l-0.155-0.502
	l-0.101,0.001l0.005,0.5l-0.112-0.501l-0.322,0.002c-4.33,0-6.705-0.568-7.483-1.102c-0.476-0.324-0.862-3.222-0.844-6.338
	c-0.038-2.229-0.978-3.679-1.81-4.531c0.158,0.009,0.314,0.024,0.475,0.024h0.833l9.366,0.202l9.348-0.202h1.113
	c0.061,0,0.119-0.008,0.179-0.009C45.313,58.726,44.383,60.174,44.346,62.397z M52.963,48.88c0,3.86-3.141,7-7,7h-20.66
	c-3.859,0-7-3.14-7-7V23.21c0-3.86,3.141-7,7-7h20.66c3.859,0,7,3.14,7,7V48.88z"/>
<g>
	<path fill="#ECECEC" d="M50.291,44.866c0,4.399-3.6,7.999-8,7.999h-13.6c-4.4,0-8-3.6-8-7.999V26.43c0-4.4,3.6-8,8-8h13.6
		c4.4,0,8,3.6,8,8V44.866z"/>
</g>
</svg>
