<?xml version="1.0" encoding="utf-8"?>
<!-- Generator: Adobe Illustrator 16.0.0, SVG Export Plug-In . SVG Version: 6.00 Build 0)  -->
<!DOCTYPE svg PUBLIC "-//W3C//DTD SVG 1.1//EN" "http://www.w3.org/Graphics/SVG/1.1/DTD/svg11.dtd">
<svg version="1.1" id="Layer_1" xmlns="http://www.w3.org/2000/svg" xmlns:xlink="http://www.w3.org/1999/xlink" x="0px" y="0px"
	 width="75px" height="75px" viewBox="-1.38 -1.38 75 75" enable-background="new -1.38 -1.38 75 75" xml:space="preserve">
<g>
	<g>
		<path fill="#FFFFFF" d="M47.327,12.296H24.979c-0.583,0-1.111-0.229-1.49-0.644c-0.378-0.416-0.557-0.964-0.504-1.543l0.58-6.243
			c0.11-1.173,1.159-2.129,2.338-2.129l20.093,0c1.174,0,2.254,0.946,2.41,2.109l0.84,6.258c0.076,0.58-0.082,1.128-0.445,1.545
			C48.435,12.066,47.913,12.296,47.327,12.296z"/>
		<path d="M47.327,13.217H24.979c-0.844,0-1.615-0.335-2.171-0.944c-0.554-0.608-0.818-1.408-0.741-2.249l0.58-6.244
			c0.152-1.634,1.612-2.965,3.255-2.965h20.093c1.646,0,3.105,1.278,3.324,2.909l0.838,6.259c0.115,0.845-0.121,1.652-0.664,2.274
			C48.948,12.877,48.181,13.217,47.327,13.217z M25.902,2.659c-0.706,0-1.355,0.592-1.42,1.293l-0.58,6.242
			c-0.029,0.322,0.063,0.613,0.269,0.837c0.203,0.224,0.484,0.343,0.808,0.343h22.348c0.32,0,0.59-0.114,0.779-0.332
			c0.189-0.216,0.268-0.498,0.225-0.813l-0.84-6.259c-0.094-0.71-0.779-1.311-1.496-1.311H25.902z"/>
	</g>
	<path fill="#FFFFFF" d="M45.923,15.962l-0.658,0.856h-9.146h-9.144l-0.659-0.856c-1.074,0.165-0.117,2.852-0.117,2.852
		c1.662,3.991,1.552,10.975,1.552,10.975l0.76,28.708c0.541,8.757,4.783,11.084,4.783,11.084h2.825h2.827
		c0,0,4.242-2.327,4.781-11.084l0.762-28.708c0,0-0.109-6.984,1.551-10.975C46.04,18.814,46.999,16.127,45.923,15.962z"/>
	<g>
		<path fill="#FFFFFF" d="M35.619,16.147H34.62h-7.671c0,0,5.67,5.877,5.781,13.249v40.598h3.001h0.777h3.002V29.396
			c0.112-7.372,5.782-13.249,5.782-13.249H35.619z"/>
		<path d="M47.878,15.27c-0.369-0.619-0.965-1.02-1.676-1.129l-1.076-0.166l-0.664,0.863l-0.105,0.137h-8.237h-8.237l-0.104-0.136
			l-0.664-0.864l-1.077,0.165c-0.711,0.11-1.306,0.511-1.675,1.129c-0.715,1.199-0.341,2.926,0.1,4.163l0.016,0.047l0.019,0.045
			c1.242,2.983,1.439,8.401,1.41,10.236l-0.001,0.039l0.001,0.04l0.761,28.708v0.032l0.003,0.032
			c0.597,9.659,5.525,12.473,5.736,12.588l0.414,0.227h0.473h2.825h2.827h0.472l0.415-0.227c0.21-0.115,5.139-2.929,5.734-12.588
			l0.002-0.032v-0.032l0.764-28.708v-0.039V29.76c-0.002-0.067-0.084-6.653,1.41-10.237l0.018-0.045l0.018-0.046
			C48.218,18.195,48.593,16.468,47.878,15.27z M39.049,29.396v40.121c-0.008,0.006-0.018,0.012-0.024,0.017h-5.808
			c-0.007-0.005-0.018-0.012-0.026-0.017V29.389c-0.088-5.777-3.43-10.576-5.05-12.57h7.979h7.979
			C42.479,18.814,39.137,23.614,39.049,29.396z M28.511,58.497l-0.76-28.708c0,0,0.11-6.984-1.552-10.975
			c0,0-0.86-2.423-0.024-2.805l0.441,0.458c0.055,0.058,5.545,5.828,5.653,12.928v39.353C30.978,67.46,28.881,64.481,28.511,58.497z
			 M46.04,18.814c-1.66,3.991-1.551,10.975-1.551,10.975l-0.762,28.708c-0.368,5.984-2.466,8.964-3.757,10.252V29.403
			c0.108-7.097,5.599-12.878,5.653-12.936l0.44-0.458C46.902,16.392,46.04,18.814,46.04,18.814z"/>
	</g>
	<g>
		<path fill="#ECECEC" d="M45.278,17.648l-0.486,0.787h-0.416c-1.074,1.592-3.775,6.125-3.841,11.549v36.521
			c0.864-0.896,2.812-3.574,3.12-9.799l0.562-26.363c0,0-0.082-6.412,1.148-10.076C45.366,20.267,46.073,17.799,45.278,17.648z"/>
	</g>
	<g>
		<path fill="#ECECEC" d="M27.324,17.648l0.488,0.787h0.417c1.074,1.592,3.773,6.125,3.84,11.549v36.521
			c-0.866-0.896-2.811-3.574-3.12-9.799l-0.563-26.363c0,0,0.081-6.413-1.148-10.076C27.238,20.267,26.531,17.799,27.324,17.648z"/>
	</g>
	<g>
		<path d="M36.501,59.587c0,0.55-0.172,1-0.381,1c-0.21,0-0.382-0.45-0.382-1v-1.188c0-0.55,0.172-1,0.382-1
			c0.209,0,0.381,0.45,0.381,1V59.587z"/>
	</g>
	<g>
		<circle fill="#FFFFFF" cx="36.12" cy="22.046" r="2.307"/>
		<path d="M36.119,24.814c-1.525,0-2.767-1.242-2.767-2.768s1.241-2.766,2.767-2.766c1.526,0,2.769,1.24,2.769,2.766
			S37.646,24.814,36.119,24.814z M36.119,20.202c-1.017,0-1.845,0.827-1.845,1.844c0,1.018,0.828,1.846,1.845,1.846
			c1.018,0,1.847-0.828,1.847-1.846C37.966,21.029,37.137,20.202,36.119,20.202z"/>
	</g>
	<path fill="#ECECEC" d="M46.267,11.349H26.032c-0.525,0-1.006-0.185-1.348-0.518c-0.344-0.335-0.506-0.776-0.457-1.242l0.525-5.022
		c0.099-0.945,1.05-1.713,2.117-1.713h18.192c1.062,0,2.041,0.761,2.184,1.697l0.758,5.035c0.072,0.466-0.072,0.908-0.402,1.244
		C47.271,11.164,46.796,11.349,46.267,11.349z"/>
	<rect x="25.321" y="3.675" width="21.598" height="0.856"/>
	<rect x="25.321" y="5.231" width="21.598" height="0.857"/>
</g>
</svg>
