<?xml version="1.0" encoding="utf-8"?>
<!-- Generator: Adobe Illustrator 16.0.0, SVG Export Plug-In . SVG Version: 6.00 Build 0)  -->
<!DOCTYPE svg PUBLIC "-//W3C//DTD SVG 1.1//EN" "http://www.w3.org/Graphics/SVG/1.1/DTD/svg11.dtd">
<svg version="1.1" id="Layer_1" xmlns="http://www.w3.org/2000/svg" xmlns:xlink="http://www.w3.org/1999/xlink" x="0px" y="0px"
	 width="72.24px" height="72.24px" viewBox="0 0 72.24 72.24" enable-background="new 0 0 72.24 72.24" xml:space="preserve">
<g>
	<g>
		<rect x="1.081" y="12.386" fill="#FFFFFF" width="70.077" height="45.704"/>
		<path fill="#222221" d="M72.199,59.131H0.041V11.346h72.158V59.131z M2.122,57.049h67.995V13.427H2.122V57.049z"/>
	</g>
	<rect x="3.057" y="15.244" fill="#ECECEC" width="51.468" height="40.311"/>
	<rect x="57.838" y="15.245" fill="#ECECEC" width="11.064" height="40.31"/>
	<g>
		<path fill="#1D1D1B" d="M10.281,60.895c1.3,0,2.355-1.055,2.355-2.355h-4.71C7.927,59.84,8.98,60.895,10.281,60.895z"/>
	</g>
	<g>
		<path fill="#1D1D1B" d="M63.371,60.895c1.301,0,2.354-1.055,2.354-2.355h-4.71C61.015,59.84,62.07,60.895,63.371,60.895z"/>
	</g>
	<g>
		<g>
			<path fill="#FFFFFF" d="M50.561,49.771c0,1.1-0.9,2-2,2H9.927c-1.1,0-2-0.9-2-2V20.521c0-1.1,0.9-2,2-2h38.634c1.1,0,2,0.9,2,2
				V49.771z"/>
		</g>
		<path d="M48.479,52.29H10.008c-1.435,0-2.602-1.166-2.602-2.602V20.603c0-1.435,1.167-2.602,2.602-2.602h38.472
			c1.435,0,2.602,1.167,2.602,2.602v29.086C51.081,51.124,49.914,52.29,48.479,52.29z M10.008,19.042c-0.86,0-1.561,0.7-1.561,1.561
			v29.086c0,0.861,0.7,1.562,1.561,1.562h38.472c0.86,0,1.561-0.7,1.561-1.562V20.603c0-0.86-0.7-1.561-1.561-1.561H10.008z"/>
	</g>
	<rect x="55.378" y="12.386" width="1.041" height="45.112"/>
	<g>
		<circle fill="#FFFFFF" cx="63.113" cy="29.259" r="2.852"/>
		<path fill="#1D1D1B" d="M63.113,32.631c-1.861,0-3.375-1.513-3.375-3.371c0-1.86,1.514-3.373,3.375-3.373
			c1.857,0,3.37,1.513,3.37,3.373C66.483,31.118,64.971,32.631,63.113,32.631z M63.113,26.927c-1.287,0-2.334,1.047-2.334,2.333
			c0,1.285,1.047,2.33,2.334,2.33c1.284,0,2.329-1.045,2.329-2.33C65.442,27.974,64.397,26.927,63.113,26.927z"/>
	</g>
	<g>
		<circle fill="#FFFFFF" cx="63.113" cy="19.675" r="2.853"/>
		<path fill="#1D1D1B" d="M63.113,23.049c-1.861,0-3.375-1.514-3.375-3.373c0-1.86,1.514-3.374,3.375-3.374
			c1.857,0,3.37,1.514,3.37,3.374C66.483,21.535,64.971,23.049,63.113,23.049z M63.113,17.343c-1.287,0-2.334,1.047-2.334,2.333
			s1.047,2.332,2.334,2.332c1.284,0,2.329-1.046,2.329-2.332S64.397,17.343,63.113,17.343z"/>
	</g>
</g>
</svg>
